<?xml version="1.0" encoding="UTF-8" standalone="no"?>
<svg
   xmlns:dc="http://purl.org/dc/elements/1.1/"
   xmlns:cc="http://creativecommons.org/ns#"
   xmlns:rdf="http://www.w3.org/1999/02/22-rdf-syntax-ns#"
   xmlns:svg="http://www.w3.org/2000/svg"
   xmlns="http://www.w3.org/2000/svg"
   xmlns:sodipodi="http://sodipodi.sourceforge.net/DTD/sodipodi-0.dtd"
   xmlns:inkscape="http://www.inkscape.org/namespaces/inkscape"
   version="1.1"
   id="svg16731"
   viewBox="0 0 983.34568 1287.0173"
   height="363.22488mm"
   width="277.522mm"
   inkscape:version="0.92.1 r15371"
   sodipodi:docname="noodlecup-colour.svg">
  <sodipodi:namedview
     pagecolor="#ffffff"
     bordercolor="#666666"
     borderopacity="1"
     objecttolerance="10"
     gridtolerance="10"
     guidetolerance="10"
     inkscape:pageopacity="0"
     inkscape:pageshadow="2"
     inkscape:window-width="1366"
     inkscape:window-height="706"
     id="namedview7"
     showgrid="false"
     inkscape:zoom="0.18946457"
     inkscape:cx="-331.87531"
     inkscape:cy="326.8067"
     inkscape:window-x="-8"
     inkscape:window-y="-8"
     inkscape:window-maximized="1"
     inkscape:current-layer="g5694" />
  <defs
     id="defs16733" />
  <metadata
     id="metadata16736">
    <rdf:RDF>
      <cc:Work
         rdf:about="">
        <dc:format>image/svg+xml</dc:format>
        <dc:type
           rdf:resource="http://purl.org/dc/dcmitype/StillImage" />
        <dc:title />
      </cc:Work>
    </rdf:RDF>
  </metadata>
  <g
     id="g5694">
    <g
       id="g82050">
      <path
         style="fill:#262587;fill-rule:evenodd;stroke:none;stroke-width:1px;stroke-linecap:butt;stroke-linejoin:miter;stroke-opacity:1;fill-opacity:1"
         d="M 891.74312,-1.0560889 12.739764,94.094953 15.921186,103.48005 733.94495,57.659507 876.74916,48.904529 906.42202,42.980608 Z"
         id="path4135"
         inkscape:connector-curvature="0"
         sodipodi:nodetypes="ccccccc" />
      <path
         style="fill:#262587;fill-rule:evenodd;stroke:none;stroke-width:1px;stroke-linecap:butt;stroke-linejoin:miter;stroke-opacity:1;fill-opacity:1"
         d="m 976.14679,98.02648 -561.46789,11.00917 0,33.02753 532.94876,0.57686 28.51913,-0.57686 3.66972,-18.34863 z"
         id="path4137"
         inkscape:connector-curvature="0"
         sodipodi:nodetypes="ccccccc" />
      <path
         style="fill:#262587;fill-opacity:1;fill-rule:evenodd;stroke:none;stroke-width:1px;stroke-linecap:butt;stroke-linejoin:miter;stroke-opacity:1"
         d="m 367.14029,110.63991 0.34883,33.69765 -14.12881,0.61659 -12.38467,-1.7159 -3.43178,-30.26584 z"
         id="path4139"
         inkscape:connector-curvature="0"
         sodipodi:nodetypes="cccccc" />
      <path
         style="fill:#262587;fill-rule:evenodd;stroke:none;stroke-width:1px;stroke-linecap:butt;stroke-linejoin:miter;stroke-opacity:1;fill-opacity:1"
         d="m 118.38576,127.82344 0.61659,17.88118 -62.892434,4.31615 -20.417111,-2.64872 -11.029106,-3.51721 1.233185,-6.16592 34.529179,-4.31615 z"
         id="path4143"
         inkscape:connector-curvature="0"
         sodipodi:nodetypes="cccccccc" />
      <path
         style="opacity:1;fill:#d6a245;fill-opacity:1;stroke:none;stroke-width:2.00099993;stroke-linecap:round;stroke-linejoin:round;stroke-miterlimit:4;stroke-dasharray:none;stroke-opacity:1"
         id="path4147"
         d="m 397.01309,100.30954 c -1.43058,4.46582 -1.9833,9.13352 -2.36031,13.7873 -0.31025,4.35253 -0.3245,8.71793 -0.32921,13.07918 -0.21984,3.21163 0.34785,6.35014 0.8257,9.50637 0.41752,2.43069 0.46743,4.88891 0.93821,7.30982 0.60944,2.21767 1.27022,4.45217 3.03576,6.01563 1.14364,1.50448 2.1638,3.08509 3.3759,4.53827 0.98265,1.44926 1.8644,2.9605 2.94706,4.3391 0.90427,1.50322 1.73066,3.04822 2.32924,4.69917 1.1707,1.70116 1.75371,3.55827 2.06125,5.58875 0.20071,1.49739 0.23208,3.01182 0.19837,4.52012 -0.0107,1.60831 -0.0421,3.21655 -0.0389,4.82494 -7.8e-4,1.57635 -0.007,3.15285 0.005,4.72918 -0.008,1.55253 -3.5e-4,3.10419 -0.01,4.65682 0.0518,2.28516 0.0122,4.52851 -0.65912,6.72504 -0.50097,1.67677 -1.68306,3.01267 -2.15274,4.68331 -0.47297,1.18855 -0.92867,2.44632 -1.88417,3.32982 -0.82796,1.00676 -1.03049,2.2995 -1.67518,3.44361 -1.11887,1.02327 -1.541,2.438 -2.19657,3.74261 -0.49746,1.06231 -1.02569,2.10606 -1.16847,3.28254 -0.17803,1.37111 -0.92525,2.49277 -1.32404,3.80618 -0.81403,1.65321 -1.26919,3.39296 -1.48859,5.21349 -0.0849,1.74043 -0.37252,3.53025 -0.13457,5.26699 0.31274,1.97801 1.54155,3.51654 2.56167,5.16037 0.96088,1.35927 1.83327,2.71795 2.58458,4.20211 0.47067,0.90497 0.27474,1.95027 0.68607,2.85469 0.39262,1.17747 0.79786,2.30023 1.4797,3.34055 0.32881,1.0843 1.11141,1.77149 1.68875,2.70815 0.35676,1.07046 1.07465,1.92009 1.52045,2.94063 0.76456,1.52881 0.67065,3.17427 0.42086,4.81542 -0.3778,2.07601 -0.85208,4.08571 -1.51946,6.08279 -1.11294,2.70561 -2.68684,5.27285 -4.18953,7.79688 -2.1276,3.70968 -3.86914,7.618 -5.91131,11.3732 -1.85808,3.08159 -3.98833,5.97911 -5.44799,9.28056 -0.48634,1.32377 -0.93245,2.69597 -1.00158,4.11407 0.14959,1.69165 -0.60296,3.11296 -1.10315,4.67338 -0.6028,1.40224 -1.19683,2.78713 -1.49564,4.29387 -0.12945,1.1888 -0.24193,2.312 -0.67976,3.43386 -0.68964,1.13807 -0.71397,2.10708 -0.40859,3.34465 0.27133,1.41921 0.86819,2.70111 1.45642,4.00595 0.44177,1.32446 0.81324,2.67751 1.0872,4.04779 0.51156,1.87857 0.70187,3.7932 1.27116,5.65396 0.65405,1.44182 0.79115,3.02124 1.213,4.52077 0.54405,1.13692 0.69554,2.49646 1.45917,3.51724 0.62605,1.33773 1.25393,2.67191 1.79532,4.04691 0.96195,0.7973 1.27642,2.10778 2.08823,3.01501 0.17353,0.23309 0.32489,0.48447 0.5206,0.69928 1.10491,1.21272 1.2834,2.41023 2.18727,3.44693 0.89077,1.24984 1.60673,2.46076 1.92322,4.00511 0.14587,1.54853 0.0783,3.10852 0.0295,4.6607 0.008,1.50278 -0.0323,3.00631 -0.003,4.50876 0.16447,1.75014 -0.25714,3.14324 -1.22157,4.61086 -1.4164,1.7317 -2.89628,3.39388 -4.22434,5.20056 -0.91694,1.78653 -1.79008,3.57559 -2.7875,5.32339 -1.41549,2.19598 -2.67454,4.51297 -3.90678,6.82557 -1.03756,1.88982 -2.13929,3.75491 -3.38256,5.51918 -0.89984,1.89374 -2.41695,3.32998 -3.4765,5.10725 -1.23635,1.33681 -1.72355,3.04809 -2.03652,4.79745 -0.2907,1.80381 -0.14765,3.63123 -0.39505,5.4363 -0.7049,1.41441 -0.99944,2.94083 -1.15758,4.49919 0.0725,2.34228 -0.53849,4.58669 -0.92467,6.87446 -0.61834,3.05696 -1.39224,6.09653 -1.5848,9.219 -0.22655,2.86629 1.0777,4.90412 2.42001,7.26256 1.4168,1.9481 2.45179,3.90359 2.82673,6.2936 0.11738,1.95576 0.0112,3.87103 0.57363,5.76412 0.3837,1.68888 0.65881,3.4072 0.79076,5.13477 0.0742,3.02823 -0.005,6.05995 -0.0251,9.08933 -0.0184,3.18612 0.0229,6.37205 0.0772,9.5576 -0.0211,3.23933 -0.0838,6.47951 -0.10076,9.72003 -0.0245,2.98105 0.0727,5.94582 0.28602,8.91546 0.0687,1.88524 0.025,3.77502 -0.0908,5.65757 0.0404,1.50918 -0.0143,2.87443 -0.71522,4.21852 -0.53619,1.47493 -1.42461,2.73083 -2.248,4.08133 -0.63247,1.83469 -1.55549,3.54289 -2.24578,5.35245 -0.0517,1.21541 -1.06246,1.90273 -1.5017,2.91194 -0.32461,0.74583 -0.56909,1.52462 -0.88719,2.27325 -0.7209,2.61485 -1.48061,5.23601 -1.94465,7.91225 -0.10709,1.47506 -0.6486,2.77519 -1.28247,4.0698 -0.83662,1.47309 -0.76503,3.0743 -0.7394,4.70906 0.0599,1.66697 0.13165,3.33368 0.12859,5.00191 -0.15728,1.96983 0.0511,3.69812 0.73219,5.5295 0.3251,1.52555 0.92404,2.90508 1.70596,4.25543 1.1784,1.23255 2.13321,2.77922 2.88451,4.31168 0.55816,1.35649 0.49763,2.83209 0.49495,4.26712 -0.0545,1.14941 -0.0677,2.29951 -0.0926,3.44981 -0.0297,1.32117 -0.0196,2.64229 -0.0228,3.96358 0.008,1.65625 -0.0313,3.31217 -0.0236,4.96849 -0.0345,2.43311 -0.0311,4.86752 -0.004,7.30097 0.0144,1.66062 0.0104,3.32135 0.0248,4.98195 -0.018,1.51919 0.008,3.03826 -0.007,4.55773 0.001,1.40126 0.005,2.80245 0.0155,4.20364 -0.12092,1.6873 -1.00352,3.04245 -1.2933,4.72223 -0.5996,2.77259 -2.39212,5.08985 -3.67104,7.57533 -3.08572,6.56291 -4.83138,13.6335 -6.58307,20.64061 -1.91614,5.82461 -3.13624,11.83404 -3.82769,17.91814 -0.22652,2.01792 -0.28598,4.04962 -0.27381,6.07862 0.0416,1.28157 0.0505,2.56356 0.0681,3.84555 -0.0148,1.78788 0.82968,3.72124 1.35627,5.47136 1.65157,4.58512 3.20851,9.23035 5.25702,13.66056 1.60426,3.73017 3.55335,7.30787 4.98215,11.1141 0.72914,1.76433 1.03073,3.61063 1.13602,5.50295 -0.10374,1.28784 0.16118,2.52803 0.27964,3.79117 -0.0186,1.26517 -0.16892,2.52396 -0.21278,3.78943 -0.0716,1.64822 0.051,3.29763 -0.31503,4.91481 -0.92493,1.5093 -0.88792,3.3591 -1.67287,4.90279 -0.71339,1.45733 -0.55301,3.11957 -1.57453,4.41835 -0.18488,1.05963 -1.26023,1.70501 -1.61444,2.65924 -0.0837,0.22557 0.0698,0.59932 -0.14538,0.70702 -6.32353,3.1657 -12.8118,5.99104 -19.2177,8.98655 -1.00549,-2.2608 -0.36318,-4.53213 0.21577,-6.80581 0,0 18.88923,-8.98172 18.88923,-8.98172 l 0,0 c -0.47471,1.52972 -1.18823,3.29145 -0.97983,4.89912 -6.1789,3.26656 -12.41965,6.41871 -18.53669,9.79968 -0.16444,0.0909 0.38748,0.24752 0.54473,0.14471 0.12219,-0.0799 1.12969,-2.48264 1.64132,-2.66125 0.39408,-1.40536 0.92027,-0.90682 1.18273,-1.71224 0.26442,-0.81145 -0.0281,-1.82858 0.45416,-2.60524 0.0948,-0.29969 0.18967,-0.59937 0.28451,-0.89906 0.18467,-0.14585 0.45787,-0.22278 0.55402,-0.43756 0.47171,-1.05371 -0.25845,-2.61476 0.86976,-3.43983 0.67371,-1.42571 0.62472,-2.79198 0.58427,-4.36648 0.0349,-1.23916 0.0125,-2.48726 0.20319,-3.7153 0.19758,-1.22805 -0.50098,-2.45366 -0.19369,-3.73792 -0.0348,-1.69697 -0.15354,-3.37123 -0.74889,-4.98226 -1.28796,-3.79879 -3.09066,-7.39056 -4.68476,-11.06339 -2.08697,-4.48299 -3.70084,-9.16012 -5.55147,-13.73719 -1.2269,-3.18083 -0.18854,-0.18932 -0.73353,-2.41114 -0.3021,-1.23163 -1.32698,-2.22558 -1.07661,-3.59828 10e-5,-1.28982 -0.0268,-2.57947 -0.0207,-3.86934 -0.017,-2.1389 -0.0377,-4.27837 0.27953,-6.40227 0.90374,-6.18641 1.99496,-12.39837 4.08994,-18.30562 1.70869,-6.99311 3.27923,-14.11023 6.11445,-20.74638 0.79291,-2.52985 1.06869,-2.28219 2.24652,-4.28517 0.5198,-0.88396 0.6321,-2.01472 1.49356,-2.69861 0.0616,-0.88292 0.16749,-3.04322 0.54755,-3.76483 0.17002,-0.32281 0.85483,-0.17381 0.82342,-0.72109 0.011,-1.40647 0.0145,-2.81293 0.0155,-4.21946 -0.0154,-1.51698 0.0108,-3.03358 -0.007,-4.55028 0.0143,-1.669 0.0104,-3.33813 0.0248,-5.00715 0.0269,-2.43201 0.0308,-4.86499 -0.004,-7.29663 0.007,-1.64824 -0.0327,-3.29605 -0.025,-4.94421 -0.003,-1.32532 0.006,-2.65016 -0.005,-3.97556 6.7e-4,-1.16789 0.046,-2.33163 0.0697,-3.49887 0.0822,-1.13067 0.1687,-2.30241 -0.01,-3.42282 -0.58515,-1.5306 -1.7428,-2.85889 -2.77285,-4.1145 -0.85775,-1.44308 -1.58802,-2.98726 -1.88282,-4.63417 -0.65654,-2.05689 -1.3701,-3.9043 -1.04897,-6.13321 -0.0382,-1.65468 -0.0449,-3.31013 -0.1169,-4.96401 -0.075,-1.7876 -0.32784,-3.78469 0.29285,-5.468 0.4442,-1.30553 1.42252,-2.30136 1.55814,-3.73009 0.55575,-2.76274 1.29584,-5.47657 1.79523,-8.24156 0.23868,-0.7282 0.69394,-1.37334 0.93061,-2.1022 0.21697,-0.66818 -0.0497,-1.3626 0.43619,-1.95716 0.15314,-0.18741 0.45906,-0.18447 0.63686,-0.34866 0.18217,-0.16822 0.27444,-0.41305 0.41167,-0.61957 0.44669,-2.02926 1.58851,-3.62949 2.15031,-5.60266 0.11641,-0.3809 0.83677,-2.24743 1.04738,-2.5783 0.21862,-0.34343 0.83542,-0.34256 0.98595,-0.72082 0.11126,-0.27958 0.048,-0.59989 0.072,-0.89984 0.18796,-0.34563 0.26611,-0.77862 0.56202,-1.0379 0.14711,-0.1289 0.44499,-0.0254 0.55648,-0.18613 0.35283,-0.50859 -0.22105,-1.58192 0.0584,-2.15148 0.0173,-1.84672 0.2526,-3.68642 0.24122,-5.53527 -0.0975,-4.23709 0.10729,1.99548 -0.25905,-2.52573 -0.17573,-2.16883 0.21149,-4.38705 0.0776,-6.55887 -0.0168,-3.20727 -0.081,-6.41422 -0.0982,-9.62027 0.0583,-3.21393 0.10625,-6.42824 0.0916,-9.64283 -0.0176,-2.95676 -0.0367,-5.91324 -0.12997,-8.86879 -0.0646,-1.58211 -0.21515,-3.16573 -0.5547,-4.71461 -0.59517,-2.01933 -0.83645,-3.98664 -0.7063,-6.09569 -0.16148,-2.17138 -1.13553,-3.78914 -2.33592,-5.58807 -1.55685,-2.6259 -3.05312,-5.00481 -2.97335,-8.20177 -0.19328,-3.19018 0.83261,-6.40555 1.46058,-9.5156 0.28362,-2.25517 0.96873,-4.41071 0.92293,-6.68211 0.0525,-1.73256 0.17873,-3.5271 0.83663,-5.14138 0.17181,-0.13553 0.42748,-0.20621 0.51544,-0.40658 0.38898,-0.88608 -0.25461,-3.48746 0.10048,-4.54363 0.25453,-1.96305 0.58053,-4.07238 1.59381,-5.78597 0.76235,-0.72397 0.88925,-1.5931 1.53832,-2.37318 0.1869,-0.22463 0.50985,-0.29994 0.71311,-0.50988 0.54841,-0.56643 0.80856,-1.37351 1.41545,-1.89495 0.73442,-1.85257 2.39522,-3.71322 3.39948,-5.50742 0.53168,-1.05929 1.03408,-2.4194 1.68207,-3.39223 0.24558,-0.36869 0.69622,-0.57565 0.92294,-0.95623 0.52052,-0.87375 0.49229,-2.00622 1.12897,-2.83459 1.44666,-1.29692 2.16691,-3.34026 2.88554,-5.12879 1.07054,-1.96777 2.50493,-3.78084 4.10147,-5.34686 0.99112,-1.1298 1.94936,-1.79856 1.76117,-3.35657 0.0376,-1.51826 0.0154,-3.03802 0.0592,-4.55649 -0.0134,-1.45236 0.0248,-2.90253 0.0355,-4.3545 -0.0249,-1.29381 -0.65787,-2.05755 -1.38238,-3.09161 -0.93022,-1.37649 -1.34305,-3.02172 -2.69715,-4.12449 -0.79935,-1.16268 -1.4755,-2.40125 -2.35892,-3.51931 -0.48567,-1.23851 -1.04831,-2.42289 -1.59278,-3.63723 -0.78906,-1.25542 -1.18007,-2.62928 -1.70998,-4.00544 -0.56055,-1.47962 -0.52962,-3.1191 -1.19693,-4.58892 -0.6211,-1.90265 -0.88899,-3.81991 -1.36223,-5.76218 -0.35479,-1.23999 -0.60793,-2.46546 -0.94313,-3.71679 -0.59338,-1.42116 -1.3075,-2.79137 -1.5992,-4.31336 -0.42236,-1.58814 -0.92709,-2.99248 -0.25904,-4.60675 0.53998,-1.02964 1.03055,-1.70479 0.93211,-2.93592 0.20961,-1.59127 0.46229,-3.34607 1.367,-4.68967 0.31626,-0.72714 0.3614,-1.91885 0.82114,-2.54444 0.11554,-0.15723 0.40926,-0.11531 0.51411,-0.27986 0.21872,-0.34327 -0.27501,-0.89782 -0.0249,-1.22082 0.0725,-1.64057 0.22189,-3.25141 0.84143,-4.80449 1.22674,-3.50773 3.29497,-6.56699 5.44615,-9.57271 2.07371,-3.74897 3.95605,-7.58431 5.85822,-11.42276 1.42551,-2.43144 2.6146,-5.01398 4.28074,-7.25847 0.15012,-0.60141 0.33921,-1.48397 0.59821,-2.06538 0.10721,-0.24067 0.33045,-0.42556 0.40665,-0.67777 0.30739,-1.01732 0.13362,-2.19503 0.5632,-3.19569 0.35623,-1.24116 0.68328,-2.4401 0.10567,-3.67273 -0.30997,-0.94363 -1.18987,-1.61932 -1.36882,-2.6269 -0.55112,-0.90753 -1.39993,-1.61763 -1.66339,-2.68969 -0.6898,-1.12888 -1.2652,-2.26698 -1.60473,-3.55153 -0.48397,-0.96895 -0.70003,-1.80691 -0.71833,-2.88188 -0.60457,-1.45593 -1.48149,-2.71177 -2.36134,-4.02153 -1.14466,-1.8455 -2.4867,-3.59597 -2.95833,-5.77845 -0.48488,-1.91344 -0.20319,-3.91078 -0.14301,-5.86809 0.18499,-1.97159 0.34568,-3.93469 1.18751,-5.76007 0.64245,-1.07286 0.50443,-2.43535 1.50247,-3.30373 0.23835,-1.31651 0.24212,-2.66317 0.96957,-3.8487 0.19344,-0.455 0.53852,-0.83679 0.72048,-1.2965 0.40141,-1.01415 0.52362,-2.09324 1.21968,-3.00456 1.29486,-0.87104 1.40722,-1.76893 1.75111,-3.1706 0.49989,-1.14143 1.74003,-1.71769 2.07691,-2.9807 0.47514,-0.74289 0.34418,-1.5077 0.76932,-2.27668 0.44164,-0.79881 1.20009,-1.46249 1.46922,-2.37656 0.97088,-1.93083 1.13603,-3.85115 0.96143,-5.99721 -0.009,-1.54937 -0.002,-3.09779 -0.01,-4.64707 0.0123,-1.58135 0.006,-3.16284 0.0123,-4.74423 0.0118,-1.60927 -0.006,-3.21867 0.0182,-4.8279 -0.008,-1.42969 0.0713,-2.86177 -0.0354,-4.29035 -0.18424,-1.97595 -0.70738,-3.56479 -1.86663,-5.19551 -0.47163,-1.46282 -1.23861,-2.77972 -2.01057,-4.10083 -1.02801,-1.37627 -1.90296,-2.84508 -2.84615,-4.28018 -1.19599,-1.3982 -2.19289,-2.92376 -3.28732,-4.39674 -1.86316,-2.04537 -2.8845,-4.427 -3.61247,-7.08789 -0.53013,-2.46392 -0.72426,-4.92276 -0.96824,-7.43021 -0.45795,-3.2633 -1.17462,-6.49789 -0.90487,-9.81587 0.0275,-4.42206 0.0857,-8.84574 0.34542,-13.26139 0.35774,-4.7291 0.8322,-9.45838 1.98749,-14.07146 0,0 18.99337,-9.02093 18.99337,-9.02093 z"
         inkscape:connector-curvature="0" />
      <path
         style="opacity:1;fill:#d6a245;fill-opacity:1;stroke:none;stroke-width:2.00099993;stroke-linecap:round;stroke-linejoin:round;stroke-miterlimit:4;stroke-dasharray:none;stroke-opacity:1"
         id="path4149"
         d="m 359.413,153.36165 c 1.82359,3.22572 3.47607,6.52076 4.47054,10.09739 0.61597,2.20975 0.75683,4.50123 0.84031,6.78111 0.0274,1.66161 0.004,3.3234 -0.0137,4.985 0.0725,1.94433 0.12624,3.67461 -1.03009,5.32104 -1.6461,2.1962 -2.94785,4.50384 -4.93221,6.44394 -2.13991,1.60034 -3.73027,3.55113 -5.07776,5.82731 -1.13575,1.66805 -1.92326,3.54313 -2.54339,5.4549 -0.87022,1.9807 -1.87841,3.90933 -2.93584,5.80119 -0.82468,1.53989 -1.46885,3.1469 -2.19306,4.72412 -0.9629,1.37851 -0.99388,3.08122 -1.11001,4.69934 -0.1172,3.15035 -0.0842,6.30298 -0.0731,9.45474 0.0127,3.32752 1.26003,6.38653 2.80298,9.27993 0.96943,2.34909 2.19631,4.58077 3.35145,6.84181 0.79082,2.40988 1.21971,4.86889 2.13128,7.24448 0.58668,2.0827 1.47885,4.09057 1.77792,6.23869 -0.0393,1.58456 0.21657,3.06125 0.69184,4.56408 0.50876,2.03546 0.54711,4.13771 0.56983,6.22304 0.025,2.74894 0.57427,5.46792 0.9989,8.17781 0.37236,2.94481 0.38365,5.91087 0.41495,8.87366 0.074,2.37414 0.0331,4.7488 0.06,7.12335 0.11443,1.69033 -0.16965,3.41506 0.0717,5.09418 0.0709,1.60783 0.83323,3.0185 1.48284,4.45792 0.8534,3.02374 1.80194,6.02353 2.82663,8.99407 0.94588,2.83714 2.36163,5.51544 3.32232,8.34073 0.61343,1.42738 0.75778,2.93137 0.79462,4.46528 0.0323,1.31298 0.0554,2.62721 0.028,3.94071 0.0383,1.15686 0.10554,2.22814 -0.40199,3.28584 -3.44795,6.48985 -1.19772,2.43949 -19.468,8.56905 -0.52233,0.17523 -0.26007,-1.07074 -0.39011,-1.60611 0,0 18.4523,-9.97648 18.4523,-9.97648 l 0,0 c 0.12293,0.48036 0.7832,1.16885 0.36878,1.44109 -20.9931,13.79046 -22.6517,16.16346 -18.29338,10.16874 0.032,-0.045 0.48189,-0.6878 0.53261,-0.72083 0.10149,-0.0661 0.30142,0.05 0.35889,-0.0566 0.20996,-0.3894 -0.17652,-1.10159 0.009,-1.52375 -0.0116,-1.30292 0.0473,-2.60432 0.0379,-3.90736 -0.0271,-1.3363 -0.0124,-2.66963 -0.48573,-3.94203 -0.84356,-2.84244 -2.18394,-5.55801 -3.1723,-8.34796 -1.05845,-2.8896 -2.04746,-5.82077 -2.8881,-8.77814 -0.6726,-1.54467 -1.70512,-3.09374 -1.70579,-4.81325 -0.478,-1.79433 -0.20978,-3.67732 -0.25598,-5.52244 0.0348,-2.38324 0.006,-4.76672 0.0446,-7.15003 -0.0248,-2.87085 -0.0613,-5.74684 -0.34734,-8.60597 -0.33865,-2.80776 -0.99635,-5.58666 -1.10043,-8.40702 -0.0502,-1.88724 -0.059,-3.78779 -0.39769,-5.65136 -0.48209,-1.62969 -1.04879,-3.23765 -0.84723,-4.96152 -0.0808,-1.99348 -0.99769,-3.82038 -1.46481,-5.75602 -0.89198,-2.30059 -1.52948,-4.62819 -2.01342,-7.04658 -1.17602,-2.24421 -2.40876,-4.48446 -3.30381,-6.85624 -1.64913,-3.19222 -3.06132,-6.54234 -3.28562,-10.16677 8.5e-4,-3.16669 8.9e-4,-6.33348 0.003,-9.49989 -0.009,-1.89777 0.009,-3.79033 0.56323,-5.60952 1.12057,-1.48005 1.55825,-2.98616 2.27473,-4.72506 1.04711,-1.79535 1.91418,-3.71423 3.05459,-5.40496 0.71206,-2.04736 1.38444,-4.06025 2.33286,-6.01308 1.69542,-2.08921 2.47222,-4.91907 5.01426,-6.26729 1.11375,-1.02672 2.61838,-1.8773 3.35385,-3.23906 0.49542,-0.91728 0.31706,-1.37501 0.95641,-2.20677 0.17732,-0.23068 0.45683,-0.36044 0.68524,-0.54067 1.13514,-1.70852 -0.12826,-0.043 1.24373,-1.25338 0.74692,-0.65895 0.11677,-2.06697 0.30607,-2.9302 0.003,-1.64816 0.0217,-3.29618 0.0368,-4.94422 0.0104,-2.13902 -0.043,-4.2913 -0.50894,-6.38868 -0.82654,-3.43255 -2.32766,-6.6221 -4.22507,-9.59834 0,0 18.19992,-10.49693 18.19992,-10.49693 z"
         inkscape:connector-curvature="0" />
      <path
         style="opacity:1;fill:#d6a245;fill-opacity:1;stroke:none;stroke-width:2.00099993;stroke-linecap:round;stroke-linejoin:round;stroke-miterlimit:4;stroke-dasharray:none;stroke-opacity:1"
         id="path4151"
         d="m 326.65541,112.73327 c 1.05454,4.32239 2.38946,8.54967 3.72681,12.79197 1.14007,3.4698 1.44763,7.1031 1.6374,10.72588 0.10986,3.32919 0.18718,6.66517 -0.058,9.98853 -0.29186,3.32121 -0.98666,6.57177 -1.69967,9.82071 -1.13213,3.70591 -2.56804,7.29077 -3.64881,11.01614 -1.28035,4.11113 -2.39459,8.27796 -3.7896,12.3514 -0.94018,3.3231 -2.17576,6.54605 -3.08709,9.87695 -0.72818,3.02147 -1.94833,5.87811 -2.64265,8.90651 -0.38221,2.67425 -0.59254,5.33622 -1.12267,7.98905 -0.46847,2.01611 -0.64083,4.07664 -0.77784,6.13589 -0.0251,1.95378 -0.16188,3.91287 0.0248,5.86101 0.58688,3.18619 1.26158,6.35426 2.00998,9.50616 0.87667,2.56453 2.15965,4.95243 3.01199,7.52673 0.80757,2.19597 0.80344,4.56636 0.72973,6.87426 -0.27041,1.7191 0.13005,3.06619 0.77435,4.61176 0.41093,2.20559 1.16097,4.32352 1.67057,6.50213 0.42527,3.38151 1.2996,6.62625 2.15422,9.91127 0.26305,2.10594 1.09754,4.03542 1.66323,6.05595 0.55806,1.80477 0.58074,3.70211 0.62326,5.57229 0.0153,2.80791 -0.004,5.61585 0.007,8.42368 6e-4,2.60866 0.003,5.21754 -0.007,7.82644 -0.002,3.15804 -0.0188,6.31638 -0.0363,9.4745 0.0204,4.73481 0.002,9.44617 -0.40917,14.16479 -0.28621,4.36567 -0.77058,8.66322 -1.69385,12.93665 -0.2805,2.70625 -1.04747,5.31561 -1.59894,7.96593 -0.54524,1.11275 -0.59162,2.30449 -0.86964,3.51921 -0.41514,1.51557 -1.40807,2.73812 -2.03378,4.15914 -0.60296,1.17935 -0.81994,2.53844 -1.24047,3.81336 -0.41589,1.4886 -0.47545,3.03768 -0.5554,4.57113 -0.007,1.00156 0.01,2.00319 5.9e-4,3.00467 0.002,1.12066 -0.0118,2.24116 0.003,3.36181 0.0113,0.58038 0.009,0.27821 0.004,0.90653 0,0 -18.84758,9.60416 -18.84758,9.60416 l 0,0 c -0.006,-0.62547 -0.008,-0.32253 0.003,-0.9088 0.0128,-1.11768 -0.002,-2.23513 -0.009,-3.35276 -0.0166,-1.02835 -0.008,-2.05749 0.0318,-3.08523 -0.006,-1.67014 0.0869,-3.33314 0.32828,-4.98768 0.28268,-1.49167 1.0374,-2.76153 1.01697,-4.2958 0.82295,-1.19921 1.09854,-2.71577 2.20892,-3.76164 0.14682,-0.37125 0.40947,-0.70627 0.47265,-1.10047 0.12836,-0.80081 -0.47219,-1.85518 0.46636,-2.31279 0.71136,-2.62704 1.54798,-5.24805 1.77925,-7.97761 1.48257,-7.57117 -0.84593,3.99486 0.92389,-3.71233 0.68187,-2.96943 0.44909,-6.0717 0.97355,-9.06749 0.45614,-4.64121 0.53332,-9.27943 0.39679,-13.94258 -0.0175,-3.14631 -0.0348,-6.29284 -0.0349,-9.43907 -0.008,-2.60982 -0.003,-5.21968 0.007,-7.82922 0.0193,-2.78862 0.0215,-5.57816 -0.0198,-8.36653 -0.0287,-1.70734 -0.0273,-3.44804 -0.4255,-5.11699 -0.48434,-2.06009 -1.46789,-3.98509 -1.55688,-6.14592 -0.76544,-3.31782 -1.83478,-6.54824 -2.27638,-9.94717 -0.33543,-2.08955 -1.31861,-4.04469 -1.56833,-6.16092 -0.59866,-1.78687 -1.56669,-3.3775 -1.11345,-5.36863 0.0521,-2.08421 0.37703,-4.28621 -0.43886,-6.25883 -0.72547,-2.65861 -2.01155,-5.09837 -2.9079,-7.69892 -0.83963,-3.17761 -1.47733,-6.4054 -2.22412,-9.60532 -0.41793,-2.04338 -0.24082,-4.14325 -0.21995,-6.22246 0.0274,-2.16875 0.2429,-4.33388 0.6414,-6.46673 0.5942,-2.65784 1.05576,-5.2622 1.16235,-7.99374 0.58114,-3.17563 1.84785,-5.99226 2.54398,-9.12012 1.20423,-3.15265 -0.20695,0.77474 0.83169,-3.06213 0.63514,-2.34629 2.01436,-4.47079 2.34342,-6.93055 1.51869,-3.98196 2.47056,-8.15625 3.84792,-12.19022 0.94146,-3.7199 2.10953,-7.34874 3.66733,-10.84786 0.5274,-3.22781 1.47295,-6.3767 1.79512,-9.6475 0.37808,-3.22371 0.15801,-6.47743 0.16128,-9.71858 -0.11661,-3.46516 -0.32956,-6.94466 -1.33135,-10.2878 -1.26823,-4.28712 -2.58211,-8.5663 -3.87474,-12.83456 0,0 18.47637,-9.99164 18.47637,-9.99164 z"
         inkscape:connector-curvature="0" />
      <path
         style="opacity:1;fill:#d6a245;fill-opacity:1;stroke:none;stroke-width:2.00099993;stroke-linecap:round;stroke-linejoin:round;stroke-miterlimit:4;stroke-dasharray:none;stroke-opacity:1"
         id="path4153"
         d="m 256.15811,110.56569 c 1.99387,3.90377 4.73559,7.35077 7.02432,11.07013 1.19973,2.5495 2.99541,4.66467 4.72845,6.84214 0.1917,0.31955 0.35066,0.66118 0.57508,0.95865 0.32318,0.42837 0.7904,0.73297 1.11944,1.15684 0.62549,0.80578 0.96804,1.74079 1.48918,2.60995 0.68005,1.93283 1.799,3.57355 2.93301,5.24421 1.05359,1.49579 2.22502,2.71128 2.75239,4.50034 0.62877,1.18842 1.46592,2.24742 2.13549,3.42034 1.14759,1.49476 1.70261,3.322 2.71441,4.89678 0.8656,2.13435 1.13289,4.49345 1.56619,6.75469 0.26265,2.15789 1.41116,3.99026 1.91644,6.08307 0.43817,2.33045 0.31248,4.73016 0.29707,7.09042 -0.0111,2.77375 4.6e-4,5.54678 -0.0109,8.32058 0.006,3.53496 -1.10019,6.98763 -2.31273,10.27285 -1.5838,4.31258 -2.54102,8.82423 -3.6428,13.27809 -0.21009,1.93091 -1.13107,3.75806 -1.25207,5.69377 -0.0389,1.72001 0.0606,3.44094 0.0881,5.16151 -0.169,2.00782 0.8173,3.66497 1.53004,5.45901 0.53893,1.97272 1.96643,3.42061 3.1093,5.07145 0.98382,1.92301 1.9207,3.86335 2.73965,5.87917 1.55009,2.46741 2.54834,5.23279 3.8308,7.84499 0.71952,2.4155 2.08604,4.51502 2.76948,6.93868 0.36406,1.41422 0.32088,2.88356 0.30896,4.33098 -0.0457,1.58003 -0.0247,3.16102 -0.0545,4.74089 0.18869,2.57655 -0.33582,5.04174 -0.85936,7.54279 -0.74058,3.10075 -2.17789,5.95842 -2.91247,9.05598 -0.9658,3.1792 -1.65731,6.41192 -2.76153,9.54852 -0.9848,2.28277 -1.56093,4.66633 -1.84023,7.12741 -0.10938,2.28697 -0.41513,4.54876 -0.39873,6.84059 0.0522,1.94723 0.17533,3.89189 0.23081,5.83931 0.15722,1.54877 -0.18122,3.13467 0.20037,4.65188 0.86628,2.65892 2.21939,5.11662 3.68578,7.48509 1.50587,2.24708 2.09301,4.89708 3.32338,7.27533 1.64158,2.5905 2.67045,5.56099 3.34827,8.53933 0.54972,3.17486 1.49214,6.26719 2.45904,9.33673 0.98297,4.10728 1.44371,8.32478 2.35258,12.4488 1.35276,5.65775 2.98043,11.26873 3.79328,17.03546 0.54608,3.83669 1.71079,7.54186 2.0415,11.40749 0.21187,3.55231 0.11352,7.12954 -0.13217,10.67802 -0.55762,4.67854 -1.04843,9.39185 -2.01974,14.00776 -0.39645,2.66043 -1.06145,5.26467 -1.73496,7.8648 -0.69928,1.75424 -1.45205,3.46915 -1.78707,5.33642 -0.44124,1.85204 -1.35322,3.51253 -1.9232,5.31625 -0.84231,2.54288 -0.81638,5.28147 -0.8974,7.93146 -0.16108,7.07147 -0.18695,14.14548 -0.1859,21.21853 -0.12052,6.26599 0.0282,12.5031 0.74396,18.72698 0.40219,1.9258 0.24228,4.17367 1.59235,5.73738 0.13664,0.10805 0.24388,0.2715 0.40994,0.32417 1.00853,0.31989 0.001,-0.4681 1.07969,0.064 0.91308,0.45044 1.70776,1.18428 2.62337,1.66173 2.59978,2.0394 -0.5212,-0.23781 1.6442,0.93114 1.18851,0.6416 0.67471,0.73327 1.83579,1.08837 2.82334,0.86348 -1.13583,-0.69876 2.03623,0.62534 1.41841,1.20146 3.08971,1.11332 4.46435,2.34648 0.35703,0.33025 0.90834,0.0148 1.28234,0.23628 0.86122,0.50994 1.77192,1.73837 2.31198,2.56296 1.13043,1.71597 2.01014,3.55334 2.50607,5.54968 0.45196,1.9524 0.38862,4.00079 0.3789,5.99611 -0.0482,2.58746 0.008,5.17595 -0.0317,7.76323 0.27495,2.89526 -0.44024,5.53049 -1.49317,8.19458 -1.73911,3.16178 -3.14297,6.34705 -3.9857,9.85273 -0.74644,2.97553 -1.29366,6.00591 -2.32023,8.90329 -0.56025,1.51047 -0.87517,3.03252 -1.6846,4.44302 -0.61744,1.92932 -1.93296,3.49041 -3.09689,5.10339 -1.20443,2.31287 -3.05498,4.18961 -4.33766,6.45591 -0.95171,1.75459 -2.37917,3.21773 -3.29511,4.98689 -0.77352,2.05694 -1.52829,4.12127 -2.50733,6.09298 -0.70403,1.41351 -1.03883,2.90535 -1.24582,4.45563 -0.0541,1.14992 -0.0964,2.29979 -0.0693,3.45098 -0.0698,1.71382 -0.0521,3.35696 0.38288,5.01864 1.26569,2.95293 2.98284,5.56827 5.00393,8.05372 2.39155,2.79599 5.22337,5.15645 8.00339,7.55069 2.31906,2.63855 5.39444,4.48585 7.77644,7.03685 1.58313,1.63427 2.39009,3.50314 2.79565,5.69932 0.20598,1.58489 0.14063,3.18134 0.15752,4.77364 -0.0147,1.28557 -0.029,2.57102 -0.0496,3.85654 -0.003,1.93932 0.0246,3.87473 -0.14057,5.80779 -0.57738,3.4308 -2.04954,6.53413 -3.62419,9.59866 -1.56413,2.96231 -3.18315,5.92368 -4.15297,9.14268 -0.47336,1.67981 -0.6168,3.42427 -0.61544,5.16276 0.13174,1.75467 -0.1446,3.38484 -0.69793,5.03894 -0.42066,1.37468 -0.54538,2.81164 -0.64859,4.23802 -0.74693,1.6825 -1.33029,3.47914 -1.83351,5.28153 -1.72105,4.51303 -2.37723,9.31996 -3.17085,14.06028 -1.53364,9.52629 -2.69272,19.11067 -4.25749,28.63181 -1.02785,5.18252 -2.2865,10.32326 -3.08304,15.54928 0.0166,0.70427 -0.91852,3.41394 0.19345,3.84928 1.03028,1.04102 1.95325,2.26627 2.61455,3.60451 0.5844,1.14126 1.00008,2.34533 1.44251,3.5492 0.46864,1.499 1.29766,2.82994 1.80942,4.31234 0.31549,1.32664 0.64451,2.61814 1.07831,3.91143 0.49745,2.11046 1.23122,4.14994 1.78723,6.24392 0.62583,2.45048 1.11601,4.9227 1.80086,7.35938 0.64189,2.36576 1.24253,4.75086 1.43888,7.19836 0.10127,1.61768 0.16225,3.23668 0.18099,4.85711 -0.15105,0.98615 0.23935,1.57095 0.63277,2.44119 0.0624,0.14194 0.32334,0.35152 0.18725,0.42583 -15.02607,8.2052 -19.68428,16.58433 -18.58414,6.545 0,0 18.82078,-9.2512 18.82078,-9.2512 l 0,0 c -1.28161,6.80841 -8.12584,30.96755 -18.85223,12.65461 -0.45232,-1.05803 -1.23315,-2.01187 -1.04471,-3.22195 0.0267,-1.58634 0.0501,-3.17422 -0.0255,-4.75967 -0.14662,-2.32098 -0.55665,-4.61059 -1.17769,-6.85308 -0.69707,-2.44958 -1.27818,-4.92241 -1.92909,-7.37579 -0.45903,-2.06465 -1.18425,-4.04561 -1.72074,-6.08728 -0.42764,-1.30849 -0.96934,-2.54388 -1.10123,-3.92705 -0.41885,-1.48207 -1.30179,-2.75924 -1.76674,-4.22525 -0.4316,-1.15964 -0.83205,-2.2478 -1.33511,-3.376 -0.54001,-1.16833 -1.42799,-2.14248 -2.32229,-3.04097 -1.30209,-1.68604 -1.45727,-3.57054 -0.98174,-5.63254 1.02399,-5.26137 2.20834,-10.48659 3.40363,-15.71334 1.80543,-9.48788 3.12017,-19.06082 4.41049,-28.62944 0.5549,-4.71294 0.84302,-9.62263 2.53875,-14.08883 0.39711,-1.28089 0.99513,-2.81334 1.2284,-4.11904 0.0612,-0.34275 -0.01,-0.71087 0.10654,-1.03907 0.0452,-0.12755 0.22663,-0.1479 0.33995,-0.22185 0.9383,-0.69159 0.2699,-3.02543 0.75797,-4.08552 0.36335,-1.56334 1.26295,-2.8708 0.94529,-4.53847 0.0342,-1.90775 -0.005,-3.82192 0.43151,-5.6966 0.89836,-3.4013 2.42242,-6.49762 4.05842,-9.6066 1.63226,-2.88689 3.05037,-5.66523 3.84679,-8.87827 0.37552,-1.81705 0.15501,-3.67152 0.20454,-5.52055 -0.0134,-1.28932 -0.0128,-2.57849 0.0168,-3.86759 0.0593,-1.49437 0.0614,-2.99349 0.0127,-4.48816 -0.17757,-1.81452 -0.72727,-3.27153 -2.04111,-4.61301 -2.43109,-2.4101 -5.25862,-4.41589 -7.62506,-6.90581 -2.86689,-2.47177 -5.7603,-4.9663 -8.20275,-7.86615 -2.17797,-2.69374 -4.01775,-5.5498 -5.46531,-8.70315 -0.65818,-1.84126 -0.92001,-3.55744 -0.79033,-5.512 0.0135,-1.20455 -0.0678,-2.40983 0.0345,-3.61221 0.0255,-1.72931 0.23652,-3.53273 0.99681,-5.09795 0.72481,-2.07119 2.03747,-3.93401 2.47165,-6.1088 0.0578,-0.15853 0.71983,-1.98746 0.77385,-2.0813 0.32373,-0.56242 0.92173,-0.92743 1.27233,-1.4735 1.13863,-1.77343 -0.2003,-0.36147 1.17896,-1.65902 0.45626,-0.78317 0.78521,-1.63799 1.26496,-2.407 0.87769,-1.40689 2.17199,-2.59131 3.11686,-3.95351 0.67816,-1.88709 2.14431,-3.11102 3.14657,-4.84038 0.36374,-1.60923 1.70576,-2.83922 1.66553,-4.62105 1.52972,-2.61134 1.82786,-5.73506 2.55693,-8.62578 1.57767,-5.34142 -0.70232,2.62344 0.82287,-3.68178 0.56069,-2.31792 2.03153,-4.30362 2.98893,-6.46052 1.19466,-2.34788 2.09376,-4.71355 1.84489,-7.38677 -0.0281,-2.58151 0.0537,-5.16378 0.0144,-7.74548 -0.015,-1.85816 0.0738,-3.73768 -0.20559,-5.57953 -0.32351,-1.79162 -1.07344,-3.35445 -2.13243,-4.82734 -0.85994,-1.1679 -1.9754,-1.52569 -3.22293,-2.20106 -1.34532,-0.65783 -2.85469,-0.9984 -4.101,-1.89137 -2.03785,-0.68684 -3.91427,-1.6857 -5.69764,-2.89071 -1.55127,-0.90993 -3.37268,-1.42738 -4.59658,-2.77484 -1.4724,-2.09849 -1.83224,-4.30275 -1.95302,-6.8402 -0.64559,-6.35175 -0.70743,-12.69052 -0.55682,-19.07344 -0.008,-7.02796 -0.0711,-14.05562 -0.15034,-21.0831 -0.003,-2.82002 -0.072,-5.66415 0.44552,-8.45013 0.67048,-1.8039 1.30704,-3.49544 1.9141,-5.29117 0.74073,-1.31256 0.70407,-4.0254 1.798,-5.39872 1.15249,-2.33306 1.42326,-5.20383 1.99652,-7.7153 1.15805,-4.50662 1.5897,-9.15102 2.20646,-13.74613 0.29417,-3.43949 0.18791,-6.88762 0.14665,-10.33775 -0.21615,-3.86783 -1.23996,-7.56428 -1.79154,-11.39096 -0.72811,-5.70673 -2.25173,-11.2825 -3.75211,-16.82608 -1.01307,-4.04388 -1.46449,-8.20721 -2.41702,-12.2657 -0.91053,-3.14306 -2.00452,-6.25044 -2.53748,-9.48545 -0.57671,-2.80601 -1.51062,-5.61111 -3.11574,-8.00286 -1.27855,-2.32454 -1.74901,-4.94702 -3.2124,-7.18585 -1.54587,-2.49828 -2.98055,-5.07599 -3.98586,-7.84454 -0.67297,-1.68812 -0.55317,-3.40693 -0.54259,-5.21448 -0.0351,-1.95639 -0.0854,-3.91215 -0.1739,-5.86698 -0.0954,-2.38826 0.15031,-4.67671 0.29611,-7.05449 0.17408,-2.61967 0.54316,-5.25794 1.65542,-7.66397 1.20365,-3.04539 1.83339,-6.18481 2.9084,-9.25398 0.53821,-3.12756 1.66081,-6.07724 2.92162,-8.9735 0.30891,-2.50385 1.29015,-4.60933 0.90985,-7.19463 -0.0165,-1.5831 0.0306,-3.16682 0.0328,-4.75024 0.0227,-1.2894 0.0891,-2.58849 -0.0556,-3.87217 -0.43856,-2.34635 -1.83804,-4.27717 -2.42204,-6.58747 -1.33666,-2.65665 -2.34623,-5.47389 -3.97196,-7.97266 -0.72035,-1.89764 -1.69165,-3.67303 -2.58894,-5.46831 -1.12431,-1.81429 -2.74733,-3.35183 -3.2772,-5.47327 -0.77961,-1.99815 -2.02599,-3.88079 -1.89157,-6.11469 -0.0407,-1.74401 -0.0872,-3.48914 -0.21993,-5.22902 0.0387,-2.17573 0.75213,-4.06693 1.25988,-6.17782 1.11643,-4.5317 2.29949,-9.04587 3.57085,-13.53458 1.2174,-3.02568 2.35559,-6.27057 2.52322,-9.52402 10e-4,-2.77932 0.0408,-5.55731 0.0469,-8.33655 -0.009,-2.2164 0.0265,-4.44646 -0.18973,-6.65336 -0.37209,-2.15823 -1.63507,-3.95895 -1.87905,-6.14829 -0.3803,-2.02362 -0.80272,-4.04533 -1.22651,-6.04275 -1.01022,-1.63114 -1.62418,-3.46115 -2.81935,-4.97641 -0.72096,-1.36489 -1.7308,-2.53659 -2.41462,-3.92776 -0.20835,-1.57769 -1.59748,-2.50822 -2.34037,-3.8542 -1.13467,-1.70193 -2.29537,-3.35634 -2.95797,-5.32779 -0.97959,-1.55797 -1.86423,-3.09198 -3.06653,-4.50651 -1.77749,-2.25415 -3.46341,-4.55836 -4.72536,-7.15279 -2.16922,-3.66813 -4.80697,-7.05455 -6.95666,-10.74135 0,0 18.01878,-10.81846 18.01878,-10.81846 z"
         inkscape:connector-curvature="0" />
      <path
         style="opacity:1;fill:#d6a245;fill-opacity:1;stroke:none;stroke-width:2.00099993;stroke-linecap:round;stroke-linejoin:round;stroke-miterlimit:4;stroke-dasharray:none;stroke-opacity:1"
         id="path4157"
         d="m 216.52329,103.48804 c 2.88054,4.54985 6.6544,8.50306 10.27975,12.47247 3.84112,3.64221 7.32342,7.62407 10.90398,11.5107 2.25352,2.33844 3.95836,5.05429 5.34758,7.96873 1.32334,1.82327 2.02234,4.00047 3.2157,5.89263 2.41959,3.83643 -0.52807,-1.45605 1.83869,2.93744 1.80544,2.0926 2.35689,4.81907 3.55213,7.22989 0.91503,2.52111 1.25015,5.21958 1.76399,7.84874 0.51969,2.36073 0.71327,4.77327 0.78825,7.18408 0.43572,3.50241 0.20669,7.03999 0.13326,10.55668 0.12515,4.48981 -0.25266,8.88429 -0.95053,13.30747 -0.6575,3.56583 -2.19303,6.8438 -3.80473,10.05809 -0.96459,1.95931 -1.86633,3.94228 -2.77768,5.92499 -1.18599,1.38025 -1.75809,3.04983 -2.61963,4.59596 -0.97577,0.85535 -1.17114,1.94199 -1.27045,3.17957 -0.5677,1.45455 -0.98894,2.9117 -1.19916,4.46042 -0.13597,1.69571 -0.25981,3.39887 -0.11254,5.09639 0.73117,3.2907 2.33557,6.35741 3.73333,9.41453 1.85565,3.79972 3.23398,7.78854 4.65817,11.76049 0.87368,2.52576 1.59087,5.19179 2.83161,7.57337 0.97546,1.2453 1.39889,2.69783 1.52076,4.24647 0.57649,1.29856 0.98791,2.62716 1.19737,4.03125 0.79917,1.19251 1.11229,2.70477 1.39389,4.09424 0.24209,1.50121 0.1661,3.01839 0.18477,4.531 0.13749,2.33022 -0.1031,4.49168 -0.80305,6.71208 -0.65929,2.28522 -1.24909,4.64719 -2.43893,6.72556 -0.77837,1.56835 -2.10493,2.71783 -3.23232,4.01979 -1.16177,2.56187 -2.17352,5.18905 -3.16028,7.82233 -1.01491,2.54732 -1.7175,5.18909 -2.34261,7.85376 -0.45633,1.80124 -0.61383,3.65032 -0.74813,5.49626 -0.13153,1.4159 -0.0634,2.71502 0.43374,4.04297 0.22097,2.63987 1.58851,4.79419 2.62296,7.16049 0.74336,1.9336 1.55066,4.01649 2.96829,5.56319 0.50524,1.20284 1.64312,1.98138 2.35285,3.02121 1.49486,2.19012 -0.15502,0.20156 0.91266,1.44641 1.15891,1.80875 1.48779,3.87574 1.9109,5.93189 0.88095,3.16572 1.10855,6.43953 1.258,9.70558 0.35523,5.08224 -0.55691,10.05326 -1.63421,14.98491 -0.64908,3.02699 -2.0025,5.81713 -3.19252,8.65157 -1.43348,2.71883 -2.88209,5.45856 -4.52308,8.0627 -0.8127,1.94578 -1.8964,3.75887 -2.62695,5.73766 -0.40521,1.26086 -0.4558,2.57792 -0.53196,3.88707 -0.009,1.89198 -0.0383,3.7875 0.0145,5.67931 -0.0341,2.02159 -0.1282,3.99812 0.39123,5.96333 0.915,2.67019 2.3024,5.1143 3.71665,7.54294 1.25078,2.27554 1.32468,4.78409 1.6885,7.27242 0.61462,2.29496 0.88239,4.64053 1.0892,7.00108 0.14644,1.94137 0.17317,3.88681 0.21207,5.83221 0.0342,2.07268 0.004,4.11382 -0.33623,6.16159 -0.49172,2.10635 -0.79952,4.2469 -0.98547,6.39998 0.0177,2.22133 -0.48953,4.37948 -1.05854,6.51254 -0.54092,2.84246 -0.73726,5.72604 -1.46396,8.53636 -0.57016,2.10337 -1.41896,4.08932 -2.29848,6.07541 -1.25559,2.33076 -2.23359,4.76332 -3.6186,7.02427 -0.64463,1.16572 -1.18011,2.30002 -1.48442,3.5906 -0.39829,1.42671 -0.33061,2.85046 -0.2819,4.34563 -0.16807,2.54978 -0.77691,5.03341 -0.99872,7.58593 -0.14167,2.18648 -0.24509,4.37829 -0.22008,6.56973 -0.0481,1.72756 0.93831,2.24343 1.72455,3.45612 0.68272,1.49447 1.68378,2.81602 2.47508,4.27844 0.92138,1.21855 1.19788,2.69284 1.35206,4.17496 0.0421,1.60291 0.72949,3.07745 1.04618,4.63309 0.31647,1.42897 0.286,2.88596 0.71921,4.286 0.55348,1.3822 1.03831,2.81855 1.281,4.29152 0.16721,1.3544 -0.004,2.72042 -0.0518,4.07719 -0.0694,2.05328 -0.0902,4.10937 -0.0493,6.1635 0.0369,1.6337 0.0998,3.11335 -0.47062,4.65863 -1.60529,4.88317 -2.20001,10.0066 -3.15606,15.0379 -0.39124,3.82182 -1.25612,7.53119 -2.45437,11.17146 -0.70374,1.91277 0.15319,3.48498 0.94398,5.20311 0.8447,1.94052 2.26327,3.46329 3.03525,5.44712 0.72281,1.22972 0.28947,2.81293 1.01017,4.00144 1.41524,4.35329 2.60808,8.78758 3.69648,13.23459 1.59941,6.73734 3.40882,13.42093 5.16482,20.1194 1.17448,4.34746 2.48633,8.68341 3.20226,13.13699 0.0618,1.49414 0.87508,2.73227 1.28712,4.12498 0.42312,1.31583 0.44171,2.71157 0.46574,4.08037 0.0119,1.38692 0.0511,2.77514 0.019,4.16182 -0.0814,1.56162 -0.82167,2.94097 -1.11009,4.48562 -0.26928,2.18128 -0.87795,4.29953 -1.29642,6.4534 -0.27906,1.59916 -0.37036,3.22143 -0.41197,4.84174 -0.0652,1.76279 -0.0655,3.526 -0.0335,5.28941 -10e-4,1.4454 0.009,2.89108 0.02,4.33662 -0.0415,1.94914 -0.0344,3.89869 -0.0271,5.84835 0.008,1.74652 0.0347,3.49399 -0.005,5.24025 -0.14536,2.57976 -1.0329,5.02975 -1.37173,7.58207 -0.14115,2.65458 -0.67999,5.26284 -1.04536,7.89229 -0.2906,1.86576 -0.36438,3.75737 -0.38767,5.6429 -0.0329,1.60068 -0.008,3.20102 -0.015,4.80183 0.0188,1.59821 -0.003,3.19648 0.006,4.79469 -0.21794,1.96523 0.19639,3.37662 1.15493,5.07351 1.24975,1.57231 1.99347,3.48417 3.31365,4.99359 0,0 -18.07723,10.812 -18.07723,10.812 l 0,0 c -1.27043,-1.67982 -2.18029,-3.59932 -3.44131,-5.29202 -1.13825,-1.92543 -2.05424,-3.71491 -1.74859,-6.00785 0.007,-1.59721 -0.0159,-3.19443 -0.004,-4.79165 -0.0137,-1.61173 -0.004,-3.22305 -0.006,-4.83479 0.0405,-1.97594 0.0915,-3.95191 0.29233,-5.91974 0.44502,-2.59379 0.96305,-5.20078 1.14476,-7.81531 0.18177,-2.52681 0.78725,-4.92586 1.42222,-7.37095 -0.0406,-1.74454 -0.0127,-3.49036 -0.005,-5.23519 0.007,-1.93985 0.015,-3.87961 -0.028,-5.8189 0.009,-1.4489 0.016,-2.89807 0.008,-4.3468 0.0233,-1.77566 0.004,-3.55006 -0.0249,-5.32549 0.043,-1.71743 0.14964,-3.4381 0.35928,-5.14251 0.30163,-2.16762 0.98161,-4.24496 1.28081,-6.40842 0.16371,-1.41595 0.0696,-3.19189 1.21875,-4.19644 -0.0252,-1.37771 0.032,-2.75614 0.0141,-4.13435 -0.0176,-1.20532 0.028,-2.44317 -0.24877,-3.62137 -0.32002,-1.50259 -1.3783,-2.79251 -1.29683,-4.39683 -0.53435,-4.43073 -1.61565,-8.77299 -2.78516,-13.07359 -1.82969,-6.69121 -3.51598,-13.41848 -5.15944,-20.15702 -1.09498,-4.21877 -2.47717,-8.33587 -3.80217,-12.48508 -0.83681,-1.42468 -0.87148,-2.78436 -1.19208,-4.35679 -0.62192,-1.95524 -2.20259,-3.36781 -2.87869,-5.30874 -1.0548,-2.18902 -2.08812,-4.14589 -1.73968,-6.66989 1.4471,-3.53542 2.56358,-7.14961 2.84048,-10.98663 1.02691,-5.04536 1.64478,-10.15834 2.82521,-15.16936 0.1156,-0.39826 0.2312,-0.79652 0.3468,-1.19477 0.10913,-0.0695 0.28322,-0.0869 0.32739,-0.2085 0.274,-0.75434 -0.23106,-1.84802 0.004,-2.6165 0.0548,-2.07229 0.0554,-4.14577 0.0589,-6.2187 0.0189,-1.27725 0.0229,-2.54801 0.14229,-3.82166 -0.0357,-1.37515 -0.57256,-2.61004 -1.04963,-3.89709 -0.52775,-1.51005 -0.72256,-2.96003 -0.83561,-4.5597 -0.24428,-1.64345 -1.07838,-3.1462 -1.16225,-4.80224 -0.0674,-1.22603 -0.16647,-2.37245 -0.92552,-3.39333 -0.78355,-1.38411 -1.69138,-2.70905 -2.385,-4.11342 -0.48144,-0.64996 -0.15993,-0.2535 -1.03802,-1.12582 -0.76351,-0.96927 -0.92836,-2.30965 -1.305,-3.44635 0.076,-2.25275 0.0855,-4.50962 0.28087,-6.75744 0.173,-2.46635 0.2967,-4.93771 1.03416,-7.31881 -0.0562,-1.05746 -0.49359,-3.38695 -0.25431,-4.35042 0.0337,-0.13553 0.23186,-0.15572 0.34779,-0.23359 -0.002,-1.56701 0.33587,-3.02073 1.23325,-4.33256 0.51257,-1.2311 1.28985,-2.0336 1.90313,-3.1944 1.41377,-2.67592 -0.31322,0.0798 1.01117,-2.69601 0.18832,-0.39469 0.478,-0.73244 0.717,-1.09866 0.9798,-1.85635 1.74365,-3.80849 2.44534,-5.7852 0.97764,-2.74011 1.31641,-5.60959 1.50811,-8.49999 0.5767,-1.99506 1.16198,-4.0159 1.18873,-6.09727 0.10586,-2.24987 0.41469,-4.47515 0.86179,-6.68312 0.51506,-1.89495 0.59303,-3.76627 0.48409,-5.72684 0.0256,-1.91167 0.0111,-3.82493 -0.0787,-5.73484 -0.13547,-2.29731 -0.36414,-4.58066 -0.99732,-6.80278 -0.45492,-2.21432 -0.23613,-4.55152 -1.27624,-6.64314 -1.52912,-2.54768 -2.91991,-5.18098 -3.97184,-7.9625 -0.74284,-2.13944 -0.87715,-4.21304 -0.76816,-6.46976 0.0367,-1.90377 -0.0137,-3.80954 -0.014,-5.71337 -0.0527,-1.4677 -0.006,-2.93767 0.2897,-4.3814 0.46593,-2.27042 1.7253,-4.08023 2.52265,-6.20836 2.6677,-5.74472 -1.33946,2.51519 1.64607,-2.52403 0.29528,-0.49839 0.37742,-1.09792 0.62565,-1.62133 0.63359,-1.33598 1.66545,-2.41126 2.30304,-3.74367 1.24162,-2.76365 2.49004,-5.46966 3.48518,-8.3474 1.07991,-4.77437 2.35303,-9.51184 1.86025,-14.47562 -0.15523,-3.12384 -0.32407,-6.27243 -1.19875,-9.29521 -0.46159,-1.73011 -0.53147,-3.58154 -1.53539,-5.13028 -1.0437,-1.46855 -2.11028,-2.90378 -3.1459,-4.38791 -1.4849,-1.77957 -2.53419,-3.97751 -3.29269,-6.15156 -0.95115,-2.40456 -2.55451,-4.53533 -2.73778,-7.1841 -0.59793,-1.59254 -1.03342,-3.06862 -0.80361,-4.79381 0.01,-1.98146 0.26769,-3.94895 0.62918,-5.89603 0.656,-2.73685 1.25215,-5.46918 2.24174,-8.09918 0.99585,-2.65088 2.05829,-5.26801 3.04327,-7.92316 0.43148,-1.81881 1.76472,-2.95456 3.16978,-4.13418 0.5575,-1.13185 0.20991,-0.60543 1.04936,-1.57488 0.7273,-1.36551 1.11087,-3.2536 1.65561,-4.71357 0.41416,-2.11412 1.44612,-3.94992 0.97453,-6.22109 0.0196,-1.40001 -0.009,-2.80194 -0.0662,-4.20086 -0.19152,-1.50112 -0.49676,-2.93777 -1.41904,-4.18669 -0.1284,-1.48672 -0.49711,-2.88167 -1.28364,-4.17512 0.007,-1.32351 -0.14864,-2.41733 -1.05402,-3.48258 -1.21258,-2.51076 -1.96862,-5.25462 -2.83471,-7.88955 -1.29847,-3.9378 -2.70041,-7.85969 -4.50878,-11.60101 -1.50588,-3.21636 -3.20434,-6.42657 -4.17002,-9.84158 -0.38004,-1.82461 -0.29641,-3.70111 -0.14596,-5.55523 0.0991,-1.68317 0.26556,-3.32767 0.93497,-4.87568 0.70189,-0.72705 0.10658,-2.97035 0.96025,-3.94506 0.14721,-0.098 0.93781,-0.58214 1.03793,-0.80029 0.58233,-1.26879 0.34729,-2.50418 1.81999,-3.38129 1.15664,-1.83818 1.65108,-3.98226 2.88909,-5.79251 1.24465,-3.23623 3.42078,-6.12878 4.14963,-9.60672 1.23652,-8.81581 -0.68386,4.46886 0.75821,-4.20282 0.48706,-2.92889 0.15503,-5.91368 0.30725,-8.86373 0.0661,-3.45451 0.3355,-6.97971 -0.21026,-10.39775 -0.0707,-2.31019 -0.15445,-4.62754 -0.60927,-6.90146 -0.46044,-2.44989 -0.90774,-4.90874 -1.50264,-7.31957 -1.23861,-2.39058 -1.6775,-5.12381 -3.46412,-7.2339 -1.58444,-3.02002 -3.5225,-5.89967 -5.15954,-8.90331 -1.22613,-2.73949 -2.88318,-5.2627 -4.91021,-7.4851 -3.52777,-3.91565 -6.94247,-7.94027 -10.75729,-11.59109 -3.67996,-3.99389 -7.42291,-7.9885 -10.59416,-12.39864 0,0 18.01879,-10.81846 18.01879,-10.81846 z"
         inkscape:connector-curvature="0" />
      <path
         style="opacity:1;fill:#d6a245;fill-opacity:1;stroke:none;stroke-width:2.00099993;stroke-linecap:round;stroke-linejoin:round;stroke-miterlimit:4;stroke-dasharray:none;stroke-opacity:1"
         id="path4159"
         d="m 179.54863,99.890704 c 1.48122,4.715546 3.94357,8.700236 5.5092,13.429346 1.20462,3.61857 2.03305,7.36107 2.59703,11.12993 0.16739,4.76651 0.9546,9.43675 2.0149,14.07497 0.83456,4.07793 2.08259,8.05037 3.42452,11.98335 0.85912,2.08004 1.41554,4.23363 1.79142,6.4497 0.2099,3.18063 0.056,6.37969 -0.0378,9.56391 -0.0917,4.90767 -0.15448,9.81511 -0.14932,14.72374 0.0425,4.01822 0.0605,8.03591 0.0571,12.05424 0.2525,3.47193 -0.64769,6.82008 -1.17026,10.21294 -0.40126,2.44512 -0.25475,4.27725 0.61406,6.56107 1.12102,2.73768 3.25871,5.05056 5.517,6.91882 2.0346,2.27295 3.80526,4.66166 5.35073,7.28 1.02929,2.3478 1.03685,4.93776 1.08711,7.45501 -0.0258,2.36707 0.11777,4.73873 -0.0823,7.09954 -0.19477,2.16081 -1.34207,3.89371 -2.43344,5.69524 -1.25221,2.91501 -3.29493,5.35037 -5.05563,7.95407 -1.5141,2.40844 -2.07872,5.21115 -2.98265,7.87024 -0.80188,2.00538 -0.83728,4.18539 -0.86472,6.31461 0.0743,1.25988 0.0475,2.5225 0.0942,3.78292 -0.002,1.88339 0.94284,3.64124 1.62946,5.35799 1.14223,1.49957 2.4222,2.97595 3.3386,4.63168 0.66127,1.50337 0.72724,3.12632 0.76227,4.73993 -0.15534,1.46071 0.0282,2.75504 0.44512,4.13483 1.11846,2.06729 0.94306,4.43748 0.92925,6.71118 0.0109,2.81123 -0.0404,5.62217 -0.0205,8.43329 -0.0672,2.34806 0.57986,4.64352 0.92519,6.956 0.50718,3.50776 0.035,7.00995 -0.38805,10.49674 -0.21192,3.0455 -1.06154,5.99294 -1.73724,8.95603 -0.2145,2.25597 -1.0661,4.35541 -1.48251,6.57122 -0.21133,1.52569 -0.16621,3.0661 -0.18272,4.60099 0.0374,1.37948 0.0328,2.76013 0.0243,4.14005 0.41476,1.54076 1.62782,2.84026 2.5142,4.16866 1.23568,2.0508 2.86288,3.75378 4.1716,5.75638 0.73695,1.30213 1.78495,2.34205 2.71907,3.50292 0.68514,1.3507 0.56997,2.8631 0.87814,4.30611 0.5541,1.68556 0.81083,3.43132 0.92076,5.19568 0.12259,2.77715 0.0755,5.559 0.0868,8.33827 -0.0509,3.80613 -0.50694,7.63821 -1.30583,11.3582 -0.99639,4.77905 -2.16821,9.50091 -2.70138,14.35983 -0.47238,2.9352 -1.1537,5.85411 -1.8988,8.73636 -0.83752,2.56683 -1.83869,5.07406 -2.66678,7.64619 -0.90117,2.95774 -1.42528,6.00203 -2.26177,8.98949 -0.44594,1.85547 -1.5127,3.44056 -1.89073,5.29896 -0.15509,1.95899 -0.10831,3.93288 -0.0305,5.8952 -0.19529,1.90188 0.63703,3.24691 1.61295,4.80573 1.40004,1.08245 1.42183,2.96651 2.30309,4.35415 1.52157,2.3959 -1.01181,-2.47735 0.99153,1.57396 0.56462,1.23602 0.91156,2.54533 1.35203,3.83423 0.41333,1.44154 0.76082,2.86717 1.30418,4.26659 0.49593,1.62087 0.77924,3.29289 1.11887,4.94926 0.44761,1.54896 0.76223,3.1308 1.12666,4.70031 0.68952,1.61132 -0.10649,3.53207 0.60909,5.09347 0.62049,1.7737 0.8935,3.65107 0.9581,5.52322 0.0174,1.62542 0.0314,3.25062 0.0366,4.87603 -0.079,2.08371 -0.0209,4.16871 -0.0609,6.25267 0.23116,2.89835 -1.06004,5.3042 -2.56645,7.65933 -1.71493,2.14387 -3.1925,4.46052 -4.79295,6.69036 -1.40551,1.95935 -2.66612,4.05954 -3.72504,6.23125 -0.52984,1.36363 -1.4083,2.45808 -1.6486,3.90446 -0.10922,1.46763 -0.8107,2.84762 -1.53337,4.11788 -1.1168,1.46723 -1.13265,3.3954 -1.24088,5.16178 -0.27419,2.65898 0.69488,5.1115 1.43282,7.6066 0.57098,1.7969 1.65863,3.28293 2.38877,5.02639 0.46751,1.56608 1.71054,2.40962 2.54813,3.71369 1.05371,0.52117 1.56349,1.6885 2.02255,2.79414 0.71683,0.75002 0.93074,2.5586 2.01013,2.80095 2.60802,3.6165 -0.6806,-0.63682 1.28383,1.25623 1.27501,1.22868 0.23302,0.69975 1.37848,1.7611 0.28243,0.26169 0.62219,0.45374 0.93328,0.68062 0.35081,0.34994 0.70161,0.69988 1.05241,1.04982 1.78311,1.97942 3.70344,3.83986 5.13309,6.09827 1.32949,1.21002 2.05547,2.49415 2.36703,4.26544 0.24555,2.00357 0.10108,4.02347 0.11045,6.03498 -0.0545,1.78002 -0.0251,3.56086 -0.0348,5.34121 0.0535,2.36749 -0.0128,4.6473 -0.59849,6.9496 -1.52284,5.07982 -2.11885,10.36916 -3.12902,15.56005 -0.57464,2.69619 -1.26763,5.36823 -1.71416,8.09017 -0.23295,1.99765 -0.67534,3.95149 -1.1413,5.90503 -0.5462,2.46564 -1.03359,4.94151 -1.85623,7.33339 -0.7327,1.83407 -1.15742,3.75341 -1.46422,5.69719 -0.24723,1.79209 -0.50241,3.57339 -0.86422,5.35205 -0.41638,1.21786 -0.22286,2.57391 -0.74388,3.74257 -1.11599,2.3098 -2.63308,4.39533 -4.03651,6.53647 -1.29027,2.02876 -2.16338,4.21891 -2.79379,6.52391 -0.67364,2.03447 -1.42445,4.04219 -2.16706,6.05218 -0.59822,1.05222 -0.37865,1.43774 -0.0198,2.5819 0.22771,2.36267 1.61202,4.25718 2.40803,6.44676 1.01654,3.29206 1.62822,6.66985 2.03427,10.08542 0.25723,3.22114 1.39186,6.17164 2.37219,9.2045 0.24139,1.73423 1.46612,2.98963 2.07217,4.56849 0.3555,1.22317 0.92324,2.35241 1.26035,3.58572 0.56877,1.79833 1.53797,3.38477 2.2904,5.10391 0.34086,1.56395 1.3231,2.76892 1.91412,4.23096 0.24654,1.3765 0.77302,2.65136 1.22885,3.96563 0.55955,1.79017 0.60098,3.67527 0.64908,5.53412 0.0704,2.22418 0.081,4.44608 -0.11167,6.66324 -0.39216,2.48261 -1.3841,4.80081 -2.11746,7.18952 -0.3834,1.31223 -0.65016,2.64103 -1.02537,3.9541 -0.20727,1.13791 -0.89316,2.13458 -1.05899,3.25266 0.0846,2.07504 -0.94317,3.70708 -2.11125,5.32705 -1.30235,1.74986 -2.23093,3.76681 -2.92615,5.82792 -0.59039,2.26337 -0.54072,4.63014 -0.58708,6.9517 -0.4208,2.74469 0.95783,4.80818 1.9546,7.21996 0.89039,2.38255 1.70673,4.77791 3.06782,6.93881 0.7424,1.78892 2.09632,2.99782 2.90218,4.75881 0.61352,1.78043 1.92856,3.11758 2.70921,4.80665 0.7227,1.56941 0.57436,3.3232 1.0557,4.95234 0.5746,1.19313 0.39051,2.72771 1.17013,3.80888 0.10505,0.19072 0.21011,0.38144 0.31516,0.57217 0,0 -18.32607,10.53596 -18.32607,10.53596 l 0,0 c -0.0809,-0.14542 -0.16183,-0.29084 -0.24274,-0.43626 -0.83699,-1.35463 -0.97912,-2.82641 -1.41841,-4.33867 -0.51339,-1.58144 -0.58436,-3.14279 -0.9312,-4.75181 -0.6983,-1.71967 -2.14787,-3.01702 -2.74098,-4.80821 -0.65677,-1.67171 -2.11539,-2.80912 -2.69239,-4.53753 -1.35298,-2.29847 -2.31016,-4.75885 -3.27234,-7.23994 -0.97812,-2.64087 -2.63737,-5.00536 -2.2578,-7.96347 -0.0197,-2.46507 -0.0558,-4.94601 0.27169,-7.39453 0.49391,-2.36546 1.60978,-4.45319 2.61213,-6.63324 0.97207,-1.10527 2.55533,-2.54626 2.55278,-4.07925 -0.0133,-0.56751 -0.15032,-1.55103 0.0659,-2.06986 0.067,-0.16084 0.32956,-0.16411 0.41752,-0.31453 0.2472,-0.42272 0.0852,-1.01049 0.33967,-1.42928 0.53617,-1.28375 0.82614,-2.53419 1.06767,-3.90365 0.74079,-2.31848 1.64596,-4.56873 2.38845,-6.88565 0.32759,-2.10914 0.15891,-4.23793 0.18753,-6.36851 -0.0354,-1.65511 -0.0224,-3.33403 -0.40824,-4.9536 -0.41152,-1.30358 -1.09631,-2.51731 -1.20416,-3.89395 -0.48612,-1.47328 -1.59588,-2.61102 -1.81471,-4.18246 -0.74006,-1.84308 -1.80032,-3.50858 -2.49341,-5.37298 -0.25253,-1.21118 -0.86891,-2.26287 -1.20291,-3.4297 -0.38197,-1.65583 -1.93391,-2.8733 -1.98466,-4.66786 -0.91803,-3.18918 -2.19016,-6.23475 -2.47992,-9.58932 -0.33996,-3.27267 -0.9273,-6.48095 -1.87691,-9.63314 -0.7481,-2.23944 -2.34634,-4.07749 -2.55563,-6.46768 -0.36686,-1.26606 -1.29007,-2.55079 -0.60686,-3.84784 0.81372,-1.95043 1.50577,-3.94539 2.32605,-5.88962 0.69832,-2.43483 1.20193,-4.90172 2.64717,-7.05932 1.17063,-2.19706 2.67544,-4.16269 3.95515,-6.26884 0.0853,-0.17701 0.17056,-0.35403 0.25583,-0.53104 0.11577,-0.0554 0.2886,-0.052 0.34729,-0.16617 0.36613,-0.71196 -0.006,-1.95273 0.33323,-2.68277 0.50846,-1.77103 0.93103,-3.54127 0.89453,-5.38955 0.7105,-1.85957 0.46661,-4.07853 1.37147,-5.9357 0.99719,-2.2808 1.65925,-4.70781 1.96472,-7.18189 0.64319,-1.81718 0.90699,-3.75711 1.17358,-5.6332 0.4505,-2.81282 1.23165,-5.54615 1.89216,-8.31393 1.28842,-5.09934 1.65301,-10.39648 3.00806,-15.47223 0.0833,-0.49335 0.16664,-0.9867 0.24996,-1.48005 0.15296,-0.3072 0.38419,-0.58664 0.45887,-0.92159 0.29014,-1.30146 -0.2161,-2.79294 -0.0267,-4.11244 0.004,-1.79337 0.0606,-3.58651 0.0565,-5.38004 0.0684,-1.91698 0.064,-3.83879 0.0272,-5.75623 -0.12082,-1.67707 -0.91317,-2.20927 -1.94434,-3.49644 -1.25746,-2.15335 -3.11134,-3.85473 -4.78844,-5.67688 -1.56353,-1.44774 -3.08446,-2.89016 -4.56264,-4.42004 -1.15612,-1.0731 -1.81076,-2.40561 -2.6061,-3.75627 -0.50727,-1.03349 -0.95845,-1.78962 -1.88854,-2.53667 -0.83209,-1.36791 -2.17303,-2.49378 -2.75649,-4.08605 -0.61297,-1.86346 -1.87301,-3.31756 -2.3392,-5.23374 -0.77665,-2.6837 -1.94501,-5.34874 -1.79475,-8.19573 0.0554,-2.07841 0.0703,-4.16542 0.67625,-6.15613 0.37338,-0.48574 1.01077,-1.10292 1.23987,-1.66714 0.28121,-0.69256 0.11069,-1.00763 0.74519,-1.47966 0.0204,-2.06411 0.28995,-2.88508 1.38863,-4.58862 0.99578,-2.39953 2.45981,-4.45973 3.56329,-6.80875 1.94913,-1.91176 3.063,-4.48229 4.78344,-6.58863 0.91935,-0.9558 2.91164,-3.71189 3.17169,-4.98951 0.0937,-0.46045 -0.009,-0.93974 -0.0128,-1.40961 -0.0382,-2.07232 0.0236,-4.14537 -0.0374,-6.21781 0.0274,-1.60887 0.0698,-3.21827 0.037,-4.82737 -0.038,-1.59544 -0.0938,-3.21003 -0.54314,-4.75313 -0.86962,-1.79608 -0.6885,-3.47645 -0.76428,-5.4203 -0.52247,-1.62694 -0.66428,-3.34749 -1.29378,-4.94639 -0.0159,-1.3061 -0.72434,-3.13996 -0.89057,-4.51316 -0.54075,-1.43189 -1.06128,-2.83607 -1.34744,-4.34224 -0.40867,-1.23513 -0.86353,-2.38533 -1.20288,-3.62962 -0.78255,-1.76239 0.40386,0.78556 -0.98821,-1.60788 -0.79367,-1.36457 -0.81532,-3.05916 -2.14262,-4.12557 -1.13794,-1.7919 -2.40418,-3.56068 -2.21762,-5.77759 -0.002,-2.04107 -0.0872,-4.08106 -0.0741,-6.12239 0.016,-0.86652 0.0281,-2.18144 0.3604,-2.98933 0.17823,-0.4333 1.48974,-2.07362 1.44915,-2.73144 0.64947,-1.96214 0.36734,-0.95467 0.83862,-3.02459 0.14409,-0.4725 0.42686,-0.89887 0.54217,-1.37921 0.37092,-1.54509 0.18311,-3.24296 0.773,-4.75534 1.37464,-2.6191 -0.0896,0.47056 0.84947,-2.68904 0.45629,-1.53525 1.35827,-3.17202 1.93238,-4.67953 0.70544,-2.84894 1.42041,-5.68631 2.14539,-8.52636 0.51278,-4.95077 1.71405,-9.72428 2.58151,-14.61553 0.98582,-3.49838 1.2782,-7.23993 1.43777,-10.85892 0.009,-2.73212 -0.002,-5.46462 -0.0976,-8.1954 -0.0894,-1.64511 -0.23166,-3.29228 -0.76678,-4.86334 -0.30703,-1.18696 -0.61667,-2.27326 -0.50556,-3.50792 -0.87695,-1.24838 -2.05692,-2.27888 -2.72088,-3.67984 -1.2834,-1.99533 -2.90243,-3.72884 -4.15604,-5.74213 -1.11245,-1.69439 -2.56974,-3.23985 -3.13696,-5.22604 -0.0164,-1.37467 -0.0336,-2.74947 -0.034,-4.12415 -0.0419,-1.62588 -0.0217,-3.25397 0.0945,-4.87677 0.18466,-2.35187 1.11159,-4.40677 1.49842,-6.70395 0.43052,-2.97499 1.58347,-5.82587 1.85256,-8.8418 0.32087,-3.3255 1.06993,-6.64408 0.54294,-9.99209 -0.31625,-2.41904 -1.0099,-4.78869 -1.09114,-7.21919 0.0644,-2.8187 0.0811,-5.63824 0.11723,-8.45741 -0.024,-2.04417 0.27065,-4.26988 -0.77092,-6.10876 -0.46595,-1.57069 -1.02267,-2.98009 -0.74772,-4.66442 0.0229,-1.28219 0.0812,-2.59327 -0.26456,-3.8411 -0.88521,-1.76942 -2.3688,-3.19616 -3.39715,-4.88311 -0.73594,-1.95162 -1.85261,-3.89513 -2.07257,-5.97746 0.0127,-1.28005 -0.069,-2.55875 -0.0433,-3.83903 -0.0323,-2.37532 0.0561,-4.7533 0.53634,-7.0891 1.34662,-2.59654 1.47897,-5.62617 2.94957,-8.18231 1.06616,-1.99376 2.0624,-2.76767 3.14897,-4.44933 0.28486,-0.44089 0.37255,-0.99041 0.65937,-1.43003 1.47727,-2.26419 0.20359,0.91194 1.17197,-1.92817 0.84702,-1.78959 2.25782,-3.16137 2.70536,-5.08364 0.64788,-2.15602 0.11897,-4.54348 0.30654,-6.76623 -0.0236,-2.17748 0.056,-4.4356 -0.64367,-6.52437 -1.28442,-2.49007 -2.98344,-4.63567 -4.86845,-6.71007 -2.40927,-2.18581 -4.85151,-4.70166 -6.09004,-7.75031 -1.07631,-2.64071 -1.5594,-4.62426 -1.08632,-7.50063 0.33612,-3.36055 1.63899,-6.58581 1.35526,-10.01203 -0.004,-4.04056 0.0128,-8.08046 0.0658,-12.12084 0.0208,-4.89687 -0.0409,-9.79392 0.0158,-14.69035 0.01,-3.0783 0.14782,-6.15593 0.0721,-9.23418 -0.17534,-2.1014 -0.91406,-4.12201 -1.5568,-6.12289 -1.30341,-4.02602 -2.47714,-8.109 -3.33795,-12.25844 -1.06814,-4.67168 -2.14796,-9.36225 -2.25453,-14.17784 -0.38193,-3.66935 -1.29795,-7.30781 -2.38185,-10.83036 -1.35925,-4.66291 -3.80583,-8.76184 -5.53898,-13.27732 0,0 18.35428,-10.197246 18.35428,-10.197246 z"
         inkscape:connector-curvature="0" />
      <path
         style="opacity:1;fill:#d6a245;fill-opacity:1;stroke:none;stroke-width:2.00099993;stroke-linecap:round;stroke-linejoin:round;stroke-miterlimit:4;stroke-dasharray:none;stroke-opacity:1"
         id="path4161"
         d="m 148.65399,116.71555 c 4.25363,2.17044 7.60419,4.55883 10.0963,8.67196 1.76934,2.94263 2.68187,6.23845 3.23617,9.59663 0.24413,1.97105 0.3512,3.95901 0.32882,5.94452 0.0612,2.477 -0.58378,4.86122 -1.67032,7.06583 -1.54607,2.74466 -2.74635,5.66025 -4.10061,8.49885 -1.26062,2.4265 -1.94917,5.07652 -2.84139,7.6456 -0.78778,1.90725 -1.04426,3.9427 -1.25557,5.97586 0.0461,1.84775 -0.30586,3.61524 -0.83368,5.37077 -0.48923,1.86832 -0.60768,3.8087 -0.6464,5.732 -0.24473,2.34119 0.61514,4.3747 1.85425,6.29989 1.50558,2.01127 2.88286,4.20439 4.98965,5.64351 1.71719,1.42396 3.05508,3.17792 3.93562,5.2228 0.60782,1.93455 1.73038,3.5531 2.74077,5.26772 1.24339,2.52987 1.61471,5.37502 2.18739,8.11197 0.67492,2.61176 0.99711,5.30866 1.13458,7.99854 0.19612,4.04259 -0.0452,8.06149 -0.52334,12.0745 -0.15684,3.37912 -1.11831,6.59807 -2.1007,9.81018 -0.89538,3.32018 -1.64204,6.67386 -2.62294,9.97179 -0.77857,3.28636 -1.70835,6.5397 -2.42123,9.84168 -0.47719,2.07858 -0.60954,4.19485 -0.70179,6.31673 -0.10748,1.79175 0.6277,3.44457 1.23685,5.09272 0.62664,1.63342 1.784,2.53611 3.15939,3.45398 1.40882,0.7749 2.34537,2.06666 3.53532,3.10211 0.99968,1.14452 1.46962,2.55092 1.84259,3.99218 0.53018,1.39322 0.40015,2.82743 0.30796,4.27914 0.0355,2.49049 0.84836,4.89244 1.4573,7.29036 0.70796,2.81065 0.91278,5.70269 1.09172,8.58431 0.3234,1.89719 -0.055,3.61411 -0.55241,5.40914 -0.43281,1.81453 -1.04748,3.53076 -1.80403,5.24445 -0.91064,1.79321 -1.39058,3.7356 -2.38017,5.49156 -0.60013,1.17546 -0.78573,2.37646 -0.84585,3.67771 0.16445,2.12111 -0.59931,4.10176 -1.0946,6.13197 -0.5362,1.77207 -1.26521,3.48792 -1.73486,5.27907 0.0697,1.76781 -0.91591,3.17625 -1.20864,4.85439 -0.4325,1.99078 -1.20871,3.81827 -1.488,5.84853 0.0439,1.57441 -0.63876,2.99233 -1.0065,4.47814 -0.57692,1.49477 -0.35285,2.88266 0.005,4.38052 0.8003,1.72387 1.6475,3.48117 2.72062,5.05866 0.79545,1.75654 1.70894,3.42839 2.25545,5.28017 0.29138,1.07845 0.30178,2.20838 0.27708,3.31775 -0.0714,1.18322 -0.0653,2.36859 -0.096,3.55345 -0.006,1.69428 -0.005,3.38839 -0.0244,5.08246 0.0214,1.67483 0.0178,3.34898 0.009,5.02389 0.0142,1.36792 0.0337,2.73529 0.009,4.10297 0.096,1.06758 -0.0901,2.1558 0.0385,3.21821 0.61139,0.79525 0.47916,2.24607 1.11914,2.95055 0.78588,1.00539 1.09847,2.20591 1.67954,3.36802 1.27777,1.49204 2.05367,3.29853 3.19449,4.88111 0.87627,1.53056 1.55382,3.16344 2.04156,4.85787 0.6265,1.6803 0.11326,3.0396 -0.43015,4.62304 -1.20802,1.77082 -2.62054,3.49066 -3.68417,5.37209 -1.29805,2.51878 -2.50167,5.08649 -3.88144,7.56194 -1.29191,2.47489 -3.09187,4.60749 -4.70386,6.86734 -1.62617,2.2117 -2.54161,4.81496 -3.9082,7.18027 -1.16052,2.25165 -1.47224,3.30908 -0.0808,5.52545 1.41578,2.67659 3.77921,4.60702 5.52055,7.02404 1.57272,1.88253 2.30551,4.2454 3.56248,6.31144 0.89815,1.41703 1.02937,3.03325 1.04949,4.66541 -0.0897,1.58154 0.52777,3.06126 1.02917,4.52789 0.21998,1.8457 0.82411,3.58399 0.99189,5.43183 -0.0656,2.42748 -0.37584,4.84042 -0.55706,7.26142 -0.16188,2.34786 -0.10751,4.70139 -0.29438,7.04696 -0.65172,2.97804 -1.45415,5.92086 -2.0503,8.91078 -0.70551,2.46847 -0.80022,5.03473 -1.33083,7.53815 -0.58551,2.14442 -0.88747,4.27181 -0.89434,6.49104 0.20778,2.17499 -0.39104,4.24886 -0.77769,6.35482 -0.2117,1.10443 -0.43906,-0.0221 0.42177,-0.0524 0.70678,-0.0489 0.32614,-0.0297 1.14227,-0.0503 0,0 -17.09537,12.40439 -17.09537,12.40439 l 0,0 c -0.90772,-0.0318 -0.47629,0.005 -1.29523,-0.10005 -1.2971,-0.2942 -2.57947,-1.61433 -2.17925,-3.01807 0.48033,-1.95572 1.13249,-3.95024 1.03493,-5.97684 -0.0238,-2.34974 -0.0335,-4.64026 0.67779,-6.89212 0.55433,-2.52017 0.83127,-5.02768 1.38892,-7.53368 0.60019,-2.95096 1.24553,-5.91232 2.09537,-8.7884 0.47164,-2.26342 0.11181,-4.6024 0.3426,-6.90072 0.12998,-2.37298 0.40619,-4.73254 0.64548,-7.09647 0.13386,-1.7251 -0.8529,-3.1789 -0.78359,-4.91048 -0.40684,-1.67906 -1.34329,-3.31117 -1.33137,-5.06761 0.0267,-1.26181 0.1751,-2.54095 -0.45334,-3.69069 -1.19673,-2.04106 -1.91042,-4.33284 -3.45413,-6.169 -1.74741,-2.45327 -4.07277,-4.47149 -5.53251,-7.15237 -1.49465,-2.32825 -2.46852,-4.78615 -0.94436,-7.38502 0.48599,-1.23829 1.29679,-2.09243 1.84521,-3.28508 0.65632,-1.42731 1.06581,-2.98094 1.93216,-4.32382 0.31408,-0.37679 0.62815,-0.75358 0.94223,-1.13038 0.23823,-0.41884 0.42397,-0.87226 0.71469,-1.25653 1.0529,-1.39175 2.43594,-2.5892 3.11676,-4.26049 1.55246,-2.33061 2.58635,-4.91415 3.97976,-7.30816 0.2856,-0.82109 0.56306,-1.80728 1.07526,-2.53271 0.84193,-1.19244 2.08768,-1.80333 2.26257,-3.435 0.24438,-0.0522 0.56321,0.0266 0.73315,-0.15664 0.18761,-0.20228 0.0612,-0.55534 0.16448,-0.81117 0.29465,-0.7299 0.87073,-0.6234 0.42414,-1.75624 -0.32537,-1.4849 -0.91667,-2.86298 -1.62443,-4.20568 -1.17096,-1.6657 -2.01548,-3.53514 -3.32723,-5.10809 -0.59189,-1.05718 -0.83734,-2.29662 -1.66584,-3.19398 -0.64615,-1.08294 -0.74385,-2.35872 -1.39341,-3.46721 -0.44181,-1.22379 -0.3253,-2.48445 -0.30014,-3.77598 -0.0251,-1.3707 -0.004,-2.7411 0.009,-4.11205 -0.009,-1.67789 -0.0128,-3.35503 0.008,-5.03286 -0.0197,-1.69135 -0.0199,-3.38281 -0.0138,-5.07437 -0.0196,-1.19552 -0.005,-2.39279 0.013,-3.58707 0.0485,-0.9384 0.15356,-1.88471 0.0417,-2.82148 -0.31767,-1.68633 -1.26953,-3.07414 -1.86355,-4.6758 -1.16124,-1.81048 -2.16562,-3.73927 -3.08535,-5.68083 -0.45073,-1.79976 -0.95934,-3.45803 -0.54918,-5.33359 0.44886,-1.3698 0.96907,-2.75992 1.20761,-4.1642 0.15732,-2.08955 0.4715,-4.05386 1.46807,-5.91022 0.0861,-0.85071 -0.0156,-2.32246 0.40051,-3.08201 0.2371,-0.43276 1.00933,-0.336 0.80965,-1.75351 0.0592,-1.97089 0.96047,-3.80153 1.61118,-5.63754 0.44372,-1.1092 0.39093,-2.33116 0.84309,-3.4092 0.096,-0.22889 0.39176,-0.33861 0.47713,-0.57167 0.18147,-0.49541 -0.20816,-1.09254 -10e-4,-1.58279 -0.0192,-1.48861 -0.13913,-3.02891 0.51972,-4.4115 0.72087,-2.31858 -0.14878,-0.004 0.95269,-1.83111 0.53662,-0.89009 0.60761,-1.94321 0.95591,-2.89334 0.11071,-0.302 0.2981,-0.57007 0.44715,-0.8551 0.81725,-1.63293 1.68487,-3.20562 1.81733,-5.0276 0.69669,-1.54767 1.24354,-2.97002 1.00892,-4.71754 -0.0851,-2.75353 -0.24702,-5.51913 -0.88271,-8.2096 -0.66996,-2.59451 -1.42953,-5.15575 -1.80533,-7.81386 0.0367,-1.2541 0.39558,-2.60413 -0.13821,-3.76638 -0.16131,-1.04753 -0.35529,-2.09349 -1.13707,-2.8756 -1.07142,-1.02316 -2.05618,-2.11953 -3.37373,-2.84493 -1.68094,-1.15973 -2.88548,-2.74918 -3.78385,-4.57986 -0.72331,-1.85122 -1.61008,-3.81328 -1.61093,-5.82101 0.0137,-2.23417 0.087,-4.50055 0.61197,-6.68034 0.63295,-3.38423 1.70706,-6.65064 2.39523,-10.02267 0.93194,-3.31152 1.8737,-6.60301 2.56703,-9.97907 0.95638,-3.13946 2.14033,-6.20453 2.31131,-9.50868 0.49798,-3.8946 0.95942,-7.76752 0.59251,-11.70371 -0.12592,-2.59089 -0.29376,-5.1925 -0.93725,-7.71669 -0.55691,-2.50462 -0.89242,-5.10911 -1.91704,-7.46772 -1.11176,-1.79147 -2.24406,-3.53838 -2.92173,-5.56121 -0.60377,-1.73429 -1.96592,-3.12411 -3.36174,-4.27312 -2.08833,-1.81835 -3.70576,-4.00784 -5.2957,-6.26089 -1.46598,-2.2083 -2.63133,-4.66658 -2.52273,-7.38643 0.066,-2.0512 0.0492,-4.10987 0.4161,-6.13827 0.35734,-1.70471 1.22569,-3.23814 1.02571,-5.03745 0.0662,-2.19923 0.37326,-4.41874 1.01279,-6.52633 1.00434,-2.6067 1.6951,-5.32097 2.83422,-7.8757 1.39581,-2.82625 2.59401,-5.73289 3.9866,-8.56172 1.1422,-1.86637 2.16363,-3.84028 2.06691,-6.09545 -0.004,-1.90269 0.0762,-3.80979 -0.12151,-5.7073 -0.36503,-3.12438 -1.10223,-6.18708 -2.74224,-8.91234 -2.14611,-3.62158 -5.61889,-5.93851 -9.49061,-7.50383 0,0 17.49372,-11.6581 17.49372,-11.6581 z"
         inkscape:connector-curvature="0" />
      <path
         style="opacity:1;fill:#d6a245;fill-opacity:1;stroke:none;stroke-width:2.00099993;stroke-linecap:round;stroke-linejoin:round;stroke-miterlimit:4;stroke-dasharray:none;stroke-opacity:1"
         id="path4163"
         d="m 108.86431,160.4393 c 1.34753,3.37528 2.68298,6.78289 4.8167,9.74541 1.13871,1.971 2.74627,3.57078 4.03518,5.43632 1.54916,2.55262 2.82536,5.24558 4.01308,7.98711 1.02325,3.00182 2.43503,5.81711 3.4733,8.81661 1.63004,2.87164 2.48095,4.69089 1.71569,7.99087 -1.10918,3.58702 -2.72631,7.01422 -4.55553,10.28707 -1.83688,3.40224 -3.64249,6.80545 -5.77105,10.03949 -1.80657,2.90777 -3.49614,5.8605 -4.9443,8.96142 -1.25329,3.10377 -2.0476,6.37102 -3.28468,9.48416 -1.12858,2.39563 -1.88149,4.90077 -2.41507,7.48461 -0.26501,1.42599 -0.2965,2.87782 -0.32433,4.32377 -0.0801,3.18267 2.0158,5.97803 3.28268,8.80064 2.15682,3.41208 3.46043,7.21523 4.8233,10.98363 1.1273,3.33968 1.43495,6.85975 2.0314,10.31494 0.40632,2.72883 1.34158,5.32847 2.15319,7.95381 1.03347,3.20988 1.38099,6.57638 1.98377,9.88267 0.53911,3.5089 1.4988,6.91713 2.18733,10.39802 0.4446,2.86223 0.50645,5.76251 0.53396,8.65307 0.15743,3.1324 -0.089,6.20955 -0.71602,9.27724 -0.91028,3.00453 -1.44793,6.08814 -2.00753,9.16886 -0.11886,3.08329 -1.39444,5.57883 -2.87522,8.19349 -2.06628,3.21468 -4.05718,6.47899 -5.97786,9.78319 -1.32284,2.00254 -2.14042,4.14385 -2.45787,6.50848 -0.27746,2.23275 -0.99134,4.38483 -1.76586,6.48824 -0.67467,1.9891 -1.06493,4.05857 -1.6238,6.08755 -0.52622,1.47121 -0.72294,3.02637 -0.88367,4.57196 -0.0967,1.79382 -0.13881,3.59198 -0.0116,5.38457 0.66611,1.94875 0.94565,4.07914 1.88348,5.93138 0.50415,0.99569 1.17089,1.90252 1.68743,2.89184 0.97649,1.98813 1.54294,4.19521 2.8764,5.99036 1.13772,1.37346 1.76027,3.15868 2.49765,4.7799 1.1236,2.23974 2.13347,4.52214 2.82171,6.93402 0.87189,2.27611 1.6254,4.54627 1.98108,6.96674 0.28605,1.81199 1.00652,3.50222 1.43426,5.28232 0.54396,2.84446 -1.42325,5.60889 -2.50589,8.13997 -1.16878,3.55192 -2.50672,7.07197 -3.46271,10.69063 -0.73173,2.99877 -2.14675,5.72408 -3.82747,8.2886 -2.42006,3.41753 -4.54661,6.97217 -5.86008,10.95665 -0.59259,2.34043 -0.89377,4.7168 -1.52725,7.0451 -0.81806,2.28458 -1.45718,4.59958 -1.87027,6.99046 -0.804361,2.81721 -1.386899,5.65519 -1.71854,8.56323 -0.3133,1.95603 -0.04504,3.7831 0.361849,5.69326 1.080611,2.95232 2.583081,5.86697 4.358891,8.46588 1.24357,2.48338 3.04659,4.55937 4.74671,6.71606 1.38136,1.49121 2.42407,3.03006 3.26644,4.88652 0.63815,1.1096 1.01459,2.3597 1.22557,3.61628 0.1569,1.88727 0.0468,3.79131 0.044,5.68422 -0.0684,3.41826 -0.0376,6.8373 -0.0385,10.25598 0.004,2.01852 0.075,4.03416 0.0535,6.05228 0.0164,3.36967 -0.0837,6.7243 -0.41858,10.07814 -0.24119,2.96185 -0.83644,5.85258 -1.77508,8.66775 -0.80442,1.9969 -1.61208,3.98888 -2.40649,5.99012 -0.87163,2.10019 -2.11324,4.02511 -2.97634,6.13472 -0.58885,1.43055 -0.88794,2.92185 -1.40813,4.37841 -0.54703,1.47791 -0.73554,3.05562 -0.84435,4.61884 -0.146,2.07154 -0.097,4.14997 -0.10776,6.22513 -0.25101,2.73514 1.26456,4.7303 2.74604,6.87281 2.49014,3.25737 4.44566,6.82157 6.51989,10.33945 2.30135,3.99524 4.27813,8.17412 6.55519,12.19067 1.77149,3.46824 2.29402,7.27798 2.51914,11.113 0.1519,2.73819 0.14814,5.48195 0.083,8.22261 0.0282,3.43183 -0.56578,6.82343 -1.00343,10.21683 -0.47221,1.83039 -0.4719,3.71888 -0.81407,5.56753 -0.3804,1.88382 -1.42337,3.49059 -2.2361,5.20669 -1.09503,1.87394 -2.18901,3.74592 -3.3672,5.57287 -1.12635,1.43678 -1.06496,3.22015 -1.23897,4.94413 -0.49378,2.08653 -0.83555,4.19221 -1.0751,6.32079 -0.0775,1.34906 -0.16902,2.69702 -0.1517,4.04886 -0.18728,1.68969 0.0347,3.03045 0.78025,4.53438 1.11478,2.25352 2.98854,3.92447 4.40733,5.9538 1.30238,1.77121 3.12459,3.07501 4.56997,4.70652 4.34668,4.9064 -1.4938,-1.22438 2.54031,2.94716 1.8102,2.09582 3.68439,4.10884 5.56527,6.1552 1.11509,1.59686 1.68292,3.30649 1.89902,5.22186 0.14383,1.7707 0.0722,3.54943 0.0604,5.32393 -0.0312,2.00546 -0.0193,4.0108 -0.0189,6.01644 -0.0126,2.27513 -0.0131,4.54986 -0.0443,6.82482 0.11309,3.62649 -0.11553,7.21303 -0.59405,10.80443 -0.62678,3.32895 -1.37181,6.62983 -1.85709,9.98384 -0.26462,2.32909 -0.29974,4.66023 -0.69165,6.97449 -0.55425,2.45241 -0.79388,4.95297 -0.9616,7.45623 0.1873,2.34673 1.00893,4.60926 1.64545,6.86446 0.92431,2.91405 1.7875,5.82526 3.58372,8.33155 1.11652,1.59189 1.94408,3.22474 2.50607,5.07855 0.53938,1.39973 1.22141,2.72193 1.70418,4.14579 0.25361,1.18115 0.42293,2.36922 0.67179,3.55363 0.58697,0.96403 0.81551,1.9969 0.93168,3.10208 0,0 -18.90665,9.41868 -18.90665,9.41868 l 0,0 c 0.49307,-0.8109 -0.1706,-1.67506 -0.57422,-2.4082 -0.37922,-1.13896 -0.57073,-2.3004 -0.67277,-3.51107 -0.39469,-1.47297 -1.08534,-2.81038 -1.66555,-4.21624 -0.43023,-1.64531 -1.21766,-3.03889 -2.10246,-4.49374 -1.88139,-2.72722 -2.86306,-5.81177 -3.83589,-8.9539 -0.79952,-2.45877 -1.67306,-4.90807 -2.10116,-7.4654 0.1363,-2.58429 0.37636,-5.17628 0.86154,-7.71901 0.50739,-2.27747 0.58495,-4.54632 0.75113,-6.87155 0.4389,-3.37735 1.21457,-6.68837 1.91628,-10.01758 0.50823,-3.50388 0.95624,-6.97327 0.68754,-10.52699 -0.0315,-2.26182 -0.0325,-4.52341 -0.0405,-6.78542 0.007,-2.01082 0.026,-4.02167 0.0254,-6.03235 0.0123,-1.71383 0.0201,-3.42686 -0.004,-5.14064 -0.0701,-1.48779 -0.3061,-2.82378 -1.20031,-4.0685 -1.77025,-2.09743 -3.72152,-4.01234 -5.41576,-6.16534 -2.41475,-2.63401 -4.89994,-5.19406 -7.277026,-7.85992 -1.576093,-2.05915 -3.479849,-3.84951 -4.660649,-6.19545 -0.914151,-1.76418 -1.55291,-3.35398 -1.320778,-5.37972 0.03088,-1.4114 -0.0353,-2.82626 0.149751,-4.23077 0.119129,-2.19067 0.432681,-4.37029 0.968935,-6.49986 0.548481,-1.87589 0.0024,-3.92693 0.869032,-5.76099 0.515862,-0.68972 1.280866,-1.52987 1.682029,-2.2762 0.584208,-1.08689 0.719905,-2.18868 1.89067,-2.91796 0.307167,-0.80521 0.830847,-2.46622 1.286864,-3.16734 0.137693,-0.2117 0.464318,-0.24624 0.605108,-0.45589 0.250084,-0.37241 0.04314,-0.94605 0.415124,-1.28016 0.63465,-1.76749 0.32968,-3.61598 1.03815,-5.35132 0.36657,-3.33622 1.17706,-6.64511 1.11413,-10.00986 -0.0276,-2.71065 0.0665,-5.42099 0.008,-8.13162 -0.15548,-3.5267 -0.42998,-7.06555 -2.00595,-10.29324 -2.250774,-4.01752 -4.14947,-8.23699 -6.557374,-12.15845 -1.99834,-3.49489 -3.995151,-6.9665 -6.460382,-10.1677 -1.693833,-2.38753 -3.632745,-4.85401 -3.454839,-7.94404 -0.01658,-2.10265 0.0051,-4.20465 -0.01811,-6.30738 0.08962,-1.72359 0.248661,-3.44907 0.617471,-5.13829 0.173771,-0.53354 0.252697,-1.10508 0.507263,-1.60514 0.08122,-0.15954 0.310168,-0.22332 0.365401,-0.39362 0.25197,-0.77686 0.06366,-1.81518 0.44613,-2.58018 1.014418,-1.96213 -0.349331,0.7494 0.797876,-1.85731 0.155326,-0.35294 0.352907,-0.68573 0.52936,-1.02859 0.208635,-0.32247 0.47015,-0.61633 0.625905,-0.96741 0.198147,-0.44663 0.181709,-0.9793 0.425587,-1.40269 0.168322,-0.29222 0.509486,-0.44196 0.764229,-0.66295 0.529182,-2.13493 1.539399,-4.09668 2.34085,-6.1314 1.231148,-2.57031 1.805811,-5.40705 2.110634,-8.22938 0.482694,-3.25223 0.515892,-6.49119 0.387321,-9.77324 -0.02188,-2.03729 0.05142,-4.07217 0.05674,-6.10985 0.0033,-3.41118 0.04166,-6.82252 -0.01278,-10.23348 0.0053,-1.81291 -0.02152,-3.62579 -0.05848,-5.43831 0.02787,-1.0545 -0.384384,-2.11619 -0.838342,-3.04951 -0.753124,-1.70003 -1.781564,-3.05598 -3.010751,-4.44883 -1.709271,-2.21739 -3.410248,-4.43712 -4.722182,-6.92602 -1.834313,-2.87914 -3.558439,-5.92747 -4.828462,-9.09399 -0.453876,-2.08793 -1.049398,-4.10155 -0.644949,-6.26203 0.200622,-2.94939 0.667281,-5.90421 1.717727,-8.67994 0.278406,-2.50868 0.836504,-4.92503 1.582992,-7.3163 0.998464,-2.25201 1.227631,-4.63169 1.732768,-7.03482 1.153795,-4.19586 3.082235,-7.95494 5.590584,-11.51607 1.645717,-2.41402 3.160282,-4.81134 4.104147,-7.59755 0.812734,-3.77985 2.424934,-7.29529 3.415614,-11.03291 0.711538,-1.78304 1.392601,-3.62331 2.220602,-5.35689 0.17558,-0.36761 0.60228,-0.61035 0.69125,-1.00791 0.0393,-0.17573 -0.0482,-0.35691 -0.0724,-0.53536 -0.32714,-1.86388 -1.053454,-3.60979 -1.428102,-5.46396 -0.277888,-2.34482 -0.94532,-4.54184 -1.834068,-6.7273 -0.598587,-2.31454 -1.609259,-4.45283 -2.666359,-6.58996 -0.745148,-1.49592 -1.326802,-3.09561 -2.314796,-4.43865 -1.373705,-1.91462 -2.087926,-4.14459 -2.949811,-6.32079 -1.01068,-1.99515 -0.438269,-0.96809 -1.74418,-3.066 -1.047504,-2.01004 -1.400039,-4.27037 -2.2271,-6.36642 -0.339327,-1.88715 -0.303686,-3.77858 -0.262028,-5.6928 0.03704,-1.71378 0.33896,-3.40471 0.673428,-5.08382 0.79571,-2.00299 1.222965,-4.08622 1.580862,-6.20558 0.848651,-1.94965 1.488973,-3.92356 2.059526,-5.96641 0.171241,-2.628 0.613646,-5.15482 2.148512,-7.37294 1.973713,-3.29608 3.875317,-6.60799 5.955049,-9.83168 3.382257,-4.87917 -1.21579,1.94978 1.554108,-2.77758 0.189551,-0.3235 0.530713,-0.53936 0.724879,-0.86012 0.70627,-1.16676 0.73416,-2.56191 0.86765,-3.8728 0.74994,-3.06376 0.95847,-6.25551 1.97634,-9.27093 0.95097,-2.84044 1.01736,-5.78715 0.93385,-8.76184 -0.0136,-2.78574 -0.0159,-5.58226 -0.36261,-8.35083 -0.53146,-3.52429 -1.61832,-6.88195 -2.11663,-10.40645 -0.61455,-3.20514 -0.97279,-6.46545 -1.934745,-9.59003 -0.941062,-2.68597 -1.727585,-5.45964 -2.224469,-8.2599 -0.60015,-3.34654 -0.912647,-6.74363 -1.864654,-10.01591 -1.275789,-3.74462 -2.56686,-7.49523 -4.721569,-10.84804 -1.35942,-3.09442 -3.655577,-6.06414 -3.851607,-9.49279 -0.02816,-1.55993 -0.05242,-3.11585 0.160762,-4.6657 0.438019,-2.72752 1.151548,-5.42904 2.346484,-7.92934 1.305686,-3.14914 2.342796,-6.32782 3.232688,-9.61637 2.968715,-5.84054 -1.324122,2.73628 1.398028,-3.13922 0.741443,-1.60033 1.8113,-2.97664 2.668942,-4.50017 0.292308,-0.51926 0.509663,-1.07728 0.764495,-1.61592 2.260753,-3.13202 4.197455,-6.44916 5.835785,-9.94223 2.00222,-2.99735 3.36101,-6.3244 4.72479,-9.64973 0.17004,-0.66655 0.89937,-2.14046 0.79861,-2.86418 -0.20536,-1.47506 -1.50029,-2.70368 -1.91877,-4.09005 -1.00572,-2.95891 -2.45023,-5.69885 -3.37785,-8.68002 -1.13542,-2.60899 -2.40367,-5.15161 -3.882986,-7.57426 -1.317487,-1.85098 -2.940253,-3.47416 -4.03534,-5.47895 -1.979312,-3.12457 -3.431622,-6.48558 -4.886087,-9.8857 0,0 18.199933,-10.49693 18.199933,-10.49693 z"
         inkscape:connector-curvature="0" />
      <rect
         y="837.72461"
         x="67.871094"
         height="100.54266"
         width="370.87888"
         id="rect82032"
         style="opacity:1;fill:#a42525;fill-opacity:1;stroke:none;stroke-width:0.86291844;stroke-linecap:round;stroke-linejoin:round;stroke-miterlimit:4;stroke-dasharray:none;stroke-dashoffset:1.21209455;stroke-opacity:1" />
      <path
         style="fill:#d7bc28;fill-opacity:1;fill-rule:evenodd;stroke:#e1b129;stroke-width:1px;stroke-linecap:butt;stroke-linejoin:miter;stroke-opacity:1"
         d="M 56.621094 822.72461 L 60.867188 1197.8398 L 450.13867 1204.916 L 448.72266 829.80078 L 56.621094 822.72461 z M 70.730469 852.85547 L 91.798828 855.86523 L 90.435547 872.22461 L 103.75977 874.12891 L 103.08594 856.61914 L 124.1543 859.62891 L 123.20703 870.99414 L 142.0293 873.68359 L 141.45898 858.875 L 162.5293 861.88477 L 161.55469 873.57031 L 175.15039 875.51172 L 174.56836 860.38086 L 195.63672 863.39062 L 194.74219 874.11914 L 210.54883 876.37695 L 209.93164 860.38086 L 231 863.39062 L 230.08008 874.4375 L 242.87109 876.26367 L 242.28711 861.13281 L 263.35547 864.14258 L 262.40039 875.61523 L 277.59766 877.78711 L 276.90039 859.62891 L 297.96875 862.63867 L 296.86133 875.91602 L 309.10938 877.66602 L 308.50195 861.88477 L 329.57227 864.89453 L 328.7832 874.34961 L 342.10547 876.25195 L 341.61133 863.39062 L 362.67969 866.40039 L 361.54688 879.99609 L 373.80273 881.74805 L 373.21289 866.40039 L 394.28125 869.41016 L 393.24609 881.83789 L 406.93164 883.79297 L 406.32031 867.9043 L 427.38867 870.91406 L 425.88477 888.97266 L 411.30859 887.80664 L 410.53516 897.09961 L 427.38867 899.50781 L 425.88477 917.56641 L 407.07422 916.06055 L 406.54102 902.23438 L 397.875 901.54102 L 396.53906 917.56641 L 377.72852 916.06055 L 377.13672 900.72461 L 362.36328 899.54297 L 361.17383 913.80469 L 342.36328 912.29883 L 341.6875 894.69727 L 330.23633 893.78125 L 328.81836 910.79492 L 310.00781 909.28906 L 309.50586 896.2168 L 296.94727 895.21094 L 295.71094 910.04102 L 276.90039 908.53711 L 276.42383 896.1582 L 263.7832 895.14648 L 262.60352 909.28906 L 243.79297 907.78516 L 243.29297 894.77148 L 231.72461 893.84766 L 230.24805 911.54688 L 211.4375 910.04102 L 210.85352 894.82422 L 196.24805 893.6582 L 194.88281 910.04102 L 176.07227 908.53711 L 175.51367 894.01562 L 163.19336 893.03125 L 161.77539 910.04102 L 142.96484 908.53711 L 142.29297 891.03125 L 142.21289 891.98242 L 123.40039 890.47852 L 122.82617 875.55078 L 122.64844 877.6875 L 107.45117 876.4707 L 106.45898 888.38086 L 126.41016 891.23047 L 124.90625 909.28906 L 106.0957 907.78516 L 105.51367 892.68945 L 92.142578 891.61914 L 91.046875 904.77539 L 72.234375 903.26953 L 71.482422 883.70703 L 87.080078 885.93555 L 86.607422 873.62891 L 71.482422 872.41992 L 70.730469 852.85547 z M 86.607422 873.62891 L 90.292969 873.92383 L 90.435547 872.22461 L 86.53125 871.66797 L 86.607422 873.62891 z M 87.080078 885.93555 L 87.283203 891.23047 L 92.142578 891.61914 L 92.550781 886.7168 L 87.080078 885.93555 z M 105.51367 892.68945 L 106.0957 892.73633 L 106.45898 888.38086 L 105.3418 888.2207 L 105.51367 892.68945 z M 107.45117 876.4707 L 107.59961 874.67773 L 103.75977 874.12891 L 103.83789 876.18164 L 107.45117 876.4707 z M 122.82617 875.55078 L 123.20703 870.99414 L 122.64844 870.91406 L 122.82617 875.55078 z M 142.29297 891.03125 L 142.46094 889.00781 L 142.21289 888.97266 L 142.29297 891.03125 z M 142.46094 889.00781 L 159.4668 891.4375 L 159.01953 879.7832 L 143.33398 878.5293 L 142.46094 889.00781 z M 143.33398 878.5293 L 143.7168 873.92383 L 142.0293 873.68359 L 142.21289 878.43945 L 143.33398 878.5293 z M 159.01953 879.7832 L 161.02344 879.94336 L 161.55469 873.57031 L 158.76562 873.17188 L 159.01953 879.7832 z M 159.4668 891.4375 L 159.51758 892.73633 L 163.19336 893.03125 L 163.28125 891.98242 L 159.4668 891.4375 z M 175.51367 894.01562 L 178.33008 894.24023 L 178.72852 889.45898 L 175.32031 888.97266 L 175.51367 894.01562 z M 178.72852 889.45898 L 194.06055 891.65039 L 193.66602 881.41211 L 179.49219 880.27734 L 178.72852 889.45898 z M 179.49219 880.27734 L 179.83398 876.18164 L 175.15039 875.51172 L 175.32031 879.94336 L 179.49219 880.27734 z M 193.66602 881.41211 L 194.13086 881.44922 L 194.74219 874.11914 L 193.37891 873.92383 L 193.66602 881.41211 z M 194.06055 891.65039 L 194.13086 893.48828 L 196.24805 893.6582 L 196.38867 891.98242 L 194.06055 891.65039 z M 210.85352 894.82422 L 212.94141 894.99219 L 213.28711 890.84961 L 210.68555 890.47852 L 210.85352 894.82422 z M 213.28711 890.84961 L 227.21289 892.83984 L 226.76758 881.23047 L 214.17383 880.22266 L 213.28711 890.84961 z M 214.17383 880.22266 L 214.44727 876.93359 L 210.54883 876.37695 L 210.68555 879.94336 L 214.17383 880.22266 z M 226.76758 881.23047 L 229.49609 881.44922 L 230.08008 874.4375 L 226.48633 873.92383 L 226.76758 881.23047 z M 227.21289 892.83984 L 227.23828 893.48828 L 231.72461 893.84766 L 231.75391 893.48828 L 227.21289 892.83984 z M 243.29297 894.77148 L 246.05078 894.99219 L 246.57227 888.72461 L 243.04102 888.2207 L 243.29297 894.77148 z M 246.57227 888.72461 L 261.69336 890.88477 L 261.35742 882.16211 L 247.21289 881.03125 L 246.57227 888.72461 z M 247.21289 881.03125 L 247.55469 876.93359 L 242.87109 876.26367 L 243.04102 880.69727 L 247.21289 881.03125 z M 261.35742 882.16211 L 261.85156 882.20117 L 262.40039 875.61523 L 261.09961 875.42969 L 261.35742 882.16211 z M 261.69336 890.88477 L 261.85156 894.99219 L 263.7832 895.14648 L 264.10938 891.23047 L 261.69336 890.88477 z M 276.42383 896.1582 L 280.66211 896.49805 L 281.22852 889.69922 L 276.14844 888.97266 L 276.42383 896.1582 z M 281.22852 889.69922 L 294.07422 891.5332 L 293.64844 880.47266 L 282.07617 879.54492 L 281.22852 889.69922 z M 282.07617 879.54492 L 282.16797 878.43945 L 277.59766 877.78711 L 277.65234 879.19141 L 282.07617 879.54492 z M 293.64844 880.47266 L 296.46289 880.69727 L 296.86133 875.91602 L 293.45312 875.42969 L 293.64844 880.47266 z M 294.07422 891.5332 L 294.20703 894.99219 L 296.94727 895.21094 L 297.2168 891.98242 L 294.07422 891.5332 z M 309.50586 896.2168 L 313.01758 896.49805 L 313.53125 890.33789 L 309.25586 889.72656 L 309.50586 896.2168 z M 313.53125 890.33789 L 326.51172 892.19141 L 326.15039 882.80078 L 314.23828 881.84766 L 313.53125 890.33789 z M 314.23828 881.84766 L 314.52148 878.43945 L 309.10938 877.66602 L 309.25586 881.44922 L 314.23828 881.84766 z M 326.15039 882.80078 L 328.06641 882.95312 L 328.7832 874.34961 L 325.80859 873.92383 L 326.15039 882.80078 z M 326.51172 892.19141 L 326.5625 893.48828 L 330.23633 893.78125 L 330.32422 892.73633 L 326.51172 892.19141 z M 341.6875 894.69727 L 345.37305 894.99219 L 345.51367 893.29492 L 341.61133 892.73633 L 341.6875 894.69727 z M 345.51367 893.29492 L 361.77539 895.61719 L 361.29297 883.03516 L 361.17383 884.45898 L 346.34961 883.27148 L 345.51367 893.29492 z M 346.34961 883.27148 L 346.87695 876.93359 L 342.10547 876.25195 L 342.36328 882.95312 L 346.34961 883.27148 z M 361.29297 883.03516 L 361.54688 879.99609 L 361.17383 879.94336 L 361.29297 883.03516 z M 361.77539 895.61719 L 361.92578 899.50781 L 362.36328 899.54297 L 362.67969 895.74609 L 361.77539 895.61719 z M 377.13672 900.72461 L 380.73828 901.01172 L 381.06641 897.08203 L 376.97461 896.49805 L 377.13672 900.72461 z M 381.06641 897.08203 L 391.17578 898.52734 L 390.74414 887.30664 L 381.9375 886.60156 L 381.06641 897.08203 z M 381.9375 886.60156 L 382.24219 882.95312 L 373.80273 881.74805 L 373.96484 885.96289 L 381.9375 886.60156 z M 390.74414 887.30664 L 392.77734 887.46875 L 393.24609 881.83789 L 390.51953 881.44922 L 390.74414 887.30664 z M 391.17578 898.52734 L 391.27148 901.01172 L 397.875 901.54102 L 398.04492 899.50781 L 391.17578 898.52734 z M 406.54102 902.23438 L 410.08398 902.51758 L 410.53516 897.09961 L 406.32031 896.49805 L 406.54102 902.23438 z M 411.30859 887.80664 L 411.58789 884.45898 L 406.93164 883.79297 L 407.07422 887.46875 L 411.30859 887.80664 z "
         id="path4165" />
      <path
         style="fill:#d7bc28;fill-rule:evenodd;stroke:none;stroke-width:1px;stroke-linecap:butt;stroke-linejoin:miter;stroke-opacity:1;fill-opacity:1"
         d="m 72.191998,1233.2272 12.739764,45.2969 351.051288,2.8311 8.49317,-50.9591 -377.94634,-9.9087 z"
         id="path4167"
         inkscape:connector-curvature="0" />
      <path
         style="fill:#262587;fill-opacity:1;fill-rule:evenodd;stroke:none;stroke-width:1px;stroke-linecap:butt;stroke-linejoin:miter;stroke-opacity:1"
         d="m 276.92514,114.77594 c 0,3.0019 6.00379,27.76756 6.00379,27.76756 l 21.76377,0 -2.25143,-29.26851 z"
         id="path5692"
         inkscape:connector-curvature="0"
         sodipodi:nodetypes="ccccc" />
    </g>
  </g>
</svg>
